<svg width="38" height="38" viewBox="0 0 38 38" fill="none" xmlns="http://www.w3.org/2000/svg">
<path d="M24.9694 10.8C26.2494 12.24 26.8494 14.2 26.5694 16.28C26.0894 20.12 23.2894 21.48 20.8094 21.48C20.6894 21.48 20.6094 21.48 20.6094 21.48V22.44C20.6094 23.32 19.8894 24.04 19.0094 24.04C18.1294 24.04 17.4094 23.32 17.4094 22.44V21.16C17.4094 19.84 17.9694 18.28 20.8094 18.28C22.3694 18.28 23.1694 17.48 23.3694 15.88C23.4494 15.36 23.4894 13.96 22.5294 12.92C21.7694 12.08 20.5294 11.64 18.8494 11.64C15.2494 11.64 15.1294 14 15.1294 14.24C15.1294 15.12 14.4094 15.84 13.5294 15.84C12.6494 15.84 11.9294 15.12 11.9294 14.24C11.9294 12.64 13.1694 8.44 18.8494 8.44C22.1694 8.44 24.0094 9.72001 24.9694 10.8ZM18.8894 25.4C18.3694 25.4 17.8494 25.6 17.4894 26C17.1294 26.36 16.8894 26.88 16.8894 27.4C16.8894 27.92 17.0894 28.44 17.4894 28.8C17.8494 29.16 18.3694 29.4 18.8894 29.4C19.4094 29.4 19.9294 29.2 20.2894 28.8C20.6494 28.44 20.8894 27.92 20.8894 27.4C20.8894 26.88 20.6894 26.36 20.2894 26C19.9694 25.64 19.4494 25.4 18.8894 25.4ZM37.4094 19C37.4094 29.16 29.1694 37.4 19.0094 37.4C8.84938 37.4 0.609375 29.16 0.609375 19C0.609375 8.84001 8.84938 0.600006 19.0094 0.600006C29.1694 0.600006 37.4094 8.84001 37.4094 19ZM34.2094 19C34.2094 10.6 27.4094 3.80001 19.0094 3.80001C10.6094 3.80001 3.80938 10.6 3.80938 19C3.80938 27.4 10.6094 34.2 19.0094 34.2C27.4094 34.2 34.2094 27.4 34.2094 19Z" fill="#333333"/>
</svg>
