<svg width="18" height="20" viewBox="0 0 18 20" fill="none" xmlns="http://www.w3.org/2000/svg">
<path d="M17.0051 8.12005C17.2851 8.40005 17.2851 8.84005 17.0051 9.12005L9.04513 17.08C7.72513 18.4 6.20515 19.1201 4.78515 19.1201C4.42515 19.1201 4.06515 19.08 3.70514 18.98C2.30514 18.6 1.22514 17.52 0.845135 16.06C0.365135 14.26 1.00514 12.3 2.62514 10.68L11.4851 1.82005C12.9251 0.380053 14.9251 0.840033 16.0852 2.00003C17.6651 3.58003 17.2252 5.44003 16.1652 6.50003L7.22514 15.44C6.04514 16.62 4.70514 16.54 4.02514 15.84C3.34514 15.14 3.26514 13.84 4.44514 12.64L10.4851 6.60003C10.7651 6.32003 11.2051 6.32003 11.4851 6.60003C11.7651 6.88003 11.7651 7.32003 11.4851 7.60003L5.44514 13.64C4.92514 14.16 4.84514 14.66 5.02514 14.86C5.22514 15.06 5.72514 14.98 6.24514 14.46L15.1852 5.52005C16.0852 4.62005 15.7051 3.60003 15.1051 3.00003C14.4251 2.32003 13.3251 1.98002 12.4851 2.84002L3.62514 11.7C2.36514 12.96 1.84514 14.4201 2.20514 15.7201C2.46514 16.6801 3.16515 17.4 4.08515 17.64C5.32515 17.98 6.74515 17.42 8.06515 16.1L16.0251 8.14002C16.2851 7.86002 16.7251 7.86005 17.0051 8.12005Z" fill="black"/>
</svg>
