<svg width="18" height="20" viewBox="0 0 18 20" fill="none" xmlns="http://www.w3.org/2000/svg">
<path d="M16.6196 15.1C15.2796 15.1 14.7596 14.32 14.7596 9.42002C14.7596 5.58002 13.0196 3.18002 10.0196 2.82002V1.6C10.0196 1.16 9.65961 0.800003 9.21961 0.800003C8.77961 0.800003 8.41961 1.16 8.41961 1.6V2.8C5.21961 3.06 3.35961 5.50002 3.35961 9.42002C3.35961 14.32 2.77961 15.1 1.41961 15.1C0.979609 15.1 0.599614 15.4 0.599614 15.86C0.599614 16.3 0.939607 16.62 1.37961 16.62H6.57961C6.63961 17.22 6.81961 17.96 7.29961 18.48C7.71961 18.94 8.2796 19.2 8.9396 19.2C9.5996 19.2 10.1596 18.92 10.5796 18.48C11.0796 17.94 11.2796 17.22 11.3596 16.62H16.6196C17.0596 16.62 17.4196 16.32 17.4196 15.86C17.4196 15.4 17.0596 15.1 16.6196 15.1ZM9.45961 17.38C9.37961 17.46 9.25961 17.58 8.97961 17.58C8.71961 17.58 8.59961 17.46 8.51961 17.38C8.35961 17.2 8.27961 17 8.21961 16.6H8.89961C8.93961 16.6 8.97961 16.6 9.01961 16.6C9.05961 16.6 9.0996 16.6 9.1396 16.6H9.79961C9.73961 17 9.63961 17.2 9.45961 17.38ZM9.1396 15C9.0996 15 9.05961 15 9.01961 15C8.97961 15 8.93961 15 8.89961 15H4.17961C4.91961 13.6 4.91961 11.42 4.91961 9.37998C4.91961 6.11998 6.33961 4.4 8.89961 4.4H9.11961C11.6796 4.4 13.0996 6.11998 13.0996 9.37998C13.0996 11.42 13.0996 13.6 13.8396 15H9.1396ZM11.9796 7.9C11.9996 8.28 11.6996 8.61999 11.3196 8.63999C11.2996 8.63999 11.2996 8.63999 11.2796 8.63999C10.9196 8.63999 10.5996 8.35998 10.5796 7.97998C10.5196 7.07998 9.8196 6.76002 9.7396 6.72002C9.3796 6.56002 9.21961 6.16 9.35961 5.8C9.49961 5.44 9.89961 5.28002 10.2596 5.42002C10.3396 5.46002 11.8796 6.1 11.9796 7.9Z" fill="#C4C4C4"/>
</svg>
