<svg width="8" height="8" viewBox="0 0 8 8" fill="none" xmlns="http://www.w3.org/2000/svg">
<path d="M7.29693 6.44C7.53693 6.68 7.53693 7.05334 7.29693 7.29334C7.17693 7.41334 7.03027 7.46667 6.87027 7.46667C6.71027 7.46667 6.56361 7.41334 6.44361 7.29334L4.00361 4.85334L1.5636 7.29334C1.4436 7.41334 1.29694 7.46667 1.13694 7.46667C0.97694 7.46667 0.83028 7.41334 0.71028 7.29334C0.47028 7.05334 0.47028 6.68 0.71028 6.44L3.15027 4.00001L0.71028 1.56001C0.47028 1.32001 0.47028 0.946671 0.71028 0.706671C0.95028 0.466671 1.3236 0.466671 1.5636 0.706671L4.00361 3.14667L6.44361 0.706671C6.68361 0.466671 7.05693 0.466671 7.29693 0.706671C7.53693 0.946671 7.53693 1.32001 7.29693 1.56001L4.85693 4.00001L7.29693 6.44Z" fill="#808080"/>
</svg>
