<svg width="20" height="12" viewBox="0 0 20 12" fill="none" xmlns="http://www.w3.org/2000/svg">
<path d="M18.1247 5.06H9.18469C8.58469 5.06 8.10469 4.58 8.10469 3.98V1.28C8.10469 0.679998 8.58469 0.199993 9.18469 0.199993H18.1247C18.7247 0.199993 19.2047 0.679998 19.2047 1.28V3.98C19.2047 4.58 18.7247 5.06 18.1247 5.06ZM9.68469 3.46H17.6047V1.79999H9.68469V3.46ZM18.1247 11.8H9.18469C8.58469 11.8 8.10469 11.32 8.10469 10.72V8.01999C8.10469 7.41999 8.58469 6.93998 9.18469 6.93998H18.1247C18.7247 6.93998 19.2047 7.41999 19.2047 8.01999V10.72C19.2047 11.32 18.7247 11.8 18.1247 11.8ZM9.68469 10.2H17.6047V8.53998H9.68469V10.2ZM5.54469 5.06H1.92469C1.30469 5.06 0.804688 4.55998 0.804688 3.93998V1.29999C0.804688 0.679993 1.30469 0.179998 1.92469 0.179998H5.54469C6.16469 0.179998 6.66469 0.679993 6.66469 1.29999V3.93998C6.66469 4.55998 6.16469 5.06 5.54469 5.06ZM2.40469 3.46H5.06469V1.79999H2.40469V3.46ZM5.54469 11.8H1.92469C1.30469 11.8 0.804688 11.3 0.804688 10.68V8.03998C0.804688 7.41998 1.30469 6.91999 1.92469 6.91999H5.54469C6.16469 6.91999 6.66469 7.41998 6.66469 8.03998V10.68C6.66469 11.3 6.16469 11.8 5.54469 11.8ZM2.40469 10.2H5.06469V8.53998H2.40469V10.2Z" fill="#B7B7B7"/>
</svg>
