<svg width="20" height="14" viewBox="0 0 20 14" fill="none" xmlns="http://www.w3.org/2000/svg">
<path d="M7.88469 8.66004C10.2247 8.66004 12.1247 6.76002 12.1247 4.44002C12.1247 2.10002 10.2247 0.220051 7.88469 0.220051C5.54469 0.220051 3.64469 2.12002 3.64469 4.44002C3.66469 6.76002 5.56469 8.66004 7.88469 8.66004ZM7.88469 1.80003C9.34469 1.80003 10.5247 2.98005 10.5247 4.42005C10.5247 5.86005 9.34469 7.04002 7.88469 7.04002C6.42469 7.04002 5.24469 5.86005 5.24469 4.42005C5.26469 2.98005 6.44469 1.80003 7.88469 1.80003ZM9.80469 9.04002C9.58469 8.98002 9.34469 9.00005 9.14469 9.12005L7.88469 9.88001L6.62469 9.12005C6.42469 9.00005 6.18469 8.98002 5.96468 9.04002C4.74469 9.42002 0.804688 10.84 0.804688 13C0.804688 13.44 1.16469 13.8 1.60469 13.8H14.1647C14.6047 13.8 14.9647 13.44 14.9647 13C14.9647 10.86 11.0247 9.44002 9.80469 9.04002ZM3.06469 12.2C3.74469 11.68 4.88469 11.12 6.12469 10.68L7.48469 11.5C7.74469 11.66 8.06469 11.66 8.30469 11.5L9.66469 10.68C10.9047 11.1 12.0447 11.68 12.7247 12.2H3.06469ZM19.0047 11.6C19.0047 11.94 18.7447 12.2 18.4047 12.2H15.7247C15.3847 12.2 15.1247 11.94 15.1247 11.6C15.1247 11.26 15.3847 11 15.7247 11H17.5047C17.2047 10.6 16.7247 10.28 16.1247 9.96004C15.8247 9.80004 15.7247 9.44004 15.8847 9.16004C16.0447 8.86004 16.4047 8.76005 16.7047 8.92005C17.5647 9.38005 19.0047 10.36 19.0047 11.6ZM15.6447 6.32005C15.6447 5.44005 14.9247 4.74002 14.0647 4.74002C13.8447 4.74002 13.6447 4.78004 13.4447 4.86004C13.1447 4.98004 12.7847 4.84002 12.6647 4.54002C12.5447 4.24002 12.6847 3.88004 12.9847 3.76004C13.3247 3.62004 13.6847 3.54002 14.0647 3.54002C15.6047 3.54002 16.8447 4.78005 16.8447 6.32005C16.8447 7.86005 15.5847 9.10003 14.0647 9.10003C13.2647 9.10003 12.5047 8.76004 11.9847 8.16004C11.7647 7.92004 11.7847 7.54005 12.0447 7.32005C12.2847 7.10005 12.6647 7.12001 12.8847 7.38001C13.1847 7.72001 13.6247 7.92005 14.0847 7.92005C14.9247 7.90005 15.6447 7.18005 15.6447 6.32005Z" fill="#949494"/>
</svg>
