<svg width="20" height="20" viewBox="0 0 20 20" fill="none" xmlns="http://www.w3.org/2000/svg">
<path d="M7.54519 8.23998H1.52519C1.14519 8.23998 0.82519 7.91998 0.82519 7.53998C0.82519 3.81998 3.84519 0.819987 7.54519 0.819987C7.92519 0.819987 8.24519 1.13999 8.24519 1.51999V7.53998C8.24519 7.91998 7.92519 8.23998 7.54519 8.23998ZM2.26521 6.81999H6.84519V2.23998C4.46519 2.55998 2.56521 4.45999 2.26521 6.81999ZM10.6252 19.2C5.88519 19.2 2.04519 15.52 2.04519 10.98C2.04519 10.54 2.40519 10.18 2.84519 10.18H10.1852V2.83998C10.1852 2.39998 10.5452 2.03998 10.9852 2.03998C15.4452 2.03998 19.2052 5.97999 19.2052 10.62C19.2052 15.34 15.3452 19.2 10.6252 19.2ZM3.7052 11.78C4.1252 15.04 7.06519 17.6 10.6252 17.6C14.4652 17.6 17.6052 14.48 17.6052 10.62C17.6052 7.11999 15.0252 4.13999 11.7852 3.69999V10.98C11.7852 11.42 11.4252 11.78 10.9852 11.78H3.7052Z" fill="#B7B7B7"/>
</svg>
