<svg width="176" height="32" viewBox="0 0 176 32" fill="none" xmlns="http://www.w3.org/2000/svg">
<path d="M82.9071 28.7371V27.2157C82.1429 27.8054 81.2925 28.2535 80.3558 28.5602C79.4191 28.8432 78.4454 28.9847 77.4348 28.9847C76.079 28.9847 74.7972 28.7371 73.5893 28.2417C72.4061 27.7464 71.3708 27.0742 70.4834 26.225C69.596 25.3759 68.8935 24.3734 68.3759 23.2177C67.8829 22.0619 67.6364 20.8236 67.6364 19.5027C67.6364 18.1818 67.8952 16.9435 68.4128 15.7877C68.9305 14.6319 69.633 13.6295 70.5204 12.7803C71.4078 11.9312 72.4554 11.2707 73.6633 10.799C74.8958 10.3037 76.2023 10.056 77.5827 10.056C78.5194 10.056 79.4314 10.1857 80.3188 10.4452C81.2309 10.681 82.069 11.0349 82.8331 11.5066V3.97048L87.8987 2.90906V28.7371H82.9071ZM72.628 19.5027C72.628 20.9887 73.1703 22.2506 74.2549 23.2884C75.3395 24.3263 76.6706 24.8452 78.2482 24.8452C79.1849 24.8452 80.0353 24.6919 80.7995 24.3852C81.5883 24.0786 82.2662 23.6422 82.8331 23.0761V15.8938C82.2908 15.3513 81.6129 14.9267 80.7995 14.6201C80.0107 14.3135 79.1603 14.1602 78.2482 14.1602C76.646 14.1602 75.3025 14.6791 74.2179 15.7169C73.158 16.7312 72.628 17.9931 72.628 19.5027Z" fill="white"/>
<path d="M108.229 26.4373C107.046 27.3572 105.826 28.0295 104.568 28.454C103.336 28.8786 101.956 29.0909 100.427 29.0909C98.9729 29.0909 97.6048 28.8432 96.323 28.3479C95.0658 27.8525 93.9689 27.1803 93.0322 26.3312C92.1201 25.482 91.393 24.4796 90.8507 23.3238C90.333 22.1444 90.0742 20.8825 90.0742 19.5381C90.0742 18.2172 90.3207 16.9788 90.8137 15.8231C91.3313 14.6437 92.0339 13.6295 92.9213 12.7803C93.8087 11.9076 94.8563 11.2236 96.0641 10.7282C97.2967 10.2329 98.6031 9.98522 99.9835 9.98522C101.339 9.98522 102.596 10.2447 103.755 10.7636C104.938 11.2589 105.949 11.943 106.787 12.8157C107.65 13.6884 108.315 14.7381 108.784 15.9646C109.277 17.1675 109.523 18.4766 109.523 19.8919V21.1656H95.1767C95.5218 22.3213 96.1874 23.253 97.1734 23.9607C98.1594 24.6683 99.318 25.0221 100.649 25.0221C101.487 25.0221 102.276 24.8924 103.015 24.6329C103.755 24.3734 104.384 24.0078 104.901 23.5361L108.229 26.4373ZM99.8726 13.9833C98.714 13.9833 97.7157 14.3253 96.8776 15.0093C96.0395 15.6697 95.4602 16.5661 95.1398 17.6982H104.568C104.248 16.6132 103.656 15.7287 102.794 15.0447C101.956 14.3371 100.982 13.9833 99.8726 13.9833Z" fill="white"/>
<path d="M108.187 28.7371L115.582 19.3611L108.372 10.3037H114.251L118.503 15.7877L122.719 10.3037H128.413L121.314 19.2904L128.856 28.7371H122.94L118.392 22.8638L113.845 28.7371H108.187Z" fill="white"/>
<path d="M138.828 26.685C139.814 26.685 140.763 26.4963 141.675 26.1189C142.587 25.7415 143.438 25.1872 144.227 24.456L145.927 26.225C144.941 27.1213 143.832 27.8172 142.6 28.3125C141.367 28.8078 140.085 29.0555 138.754 29.0555C137.448 29.0555 136.215 28.8196 135.057 28.3479C133.898 27.8761 132.9 27.2275 132.062 26.4019C131.224 25.5764 130.558 24.5975 130.065 23.4653C129.572 22.3331 129.326 21.1302 129.326 19.8565C129.326 18.5828 129.572 17.3916 130.065 16.283C130.558 15.1508 131.224 14.172 132.062 13.3464C132.9 12.5209 133.898 11.8722 135.057 11.4005C136.215 10.9051 137.448 10.6575 138.754 10.6575C140.085 10.6575 141.379 10.9051 142.637 11.4005C143.918 11.8958 145.04 12.5798 146.001 13.4525L144.264 15.3631C143.524 14.6319 142.674 14.0658 141.712 13.6648C140.751 13.2638 139.777 13.0634 138.791 13.0634C137.854 13.0634 136.967 13.2403 136.129 13.5941C135.291 13.9479 134.564 14.4314 133.947 15.0447C133.356 15.658 132.888 16.3774 132.542 17.2029C132.197 18.0285 132.025 18.913 132.025 19.8565C132.025 20.8236 132.197 21.7317 132.542 22.5808C132.912 23.4064 133.393 24.1258 133.984 24.739C134.601 25.3287 135.328 25.8005 136.166 26.1543C137.004 26.5081 137.891 26.685 138.828 26.685Z" fill="white"/>
<path d="M154.051 29.0555C152.029 29.0555 150.378 28.5602 149.096 27.5695C147.839 26.5788 147.21 25.2933 147.21 23.713C147.21 22.0619 147.876 20.7528 149.207 19.7857C150.538 18.7951 152.337 18.2997 154.605 18.2997C155.591 18.2997 156.54 18.4059 157.452 18.6181C158.389 18.8304 159.252 19.1253 160.041 19.5027V17.1675C160.041 15.7523 159.622 14.6909 158.783 13.9833C157.945 13.2521 156.725 12.8865 155.123 12.8865C154.211 12.8865 153.286 13.0162 152.35 13.2756C151.438 13.5115 150.427 13.9007 149.318 14.4432L148.283 12.4265C149.614 11.8132 150.846 11.3651 151.98 11.082C153.114 10.799 154.248 10.6575 155.382 10.6575C157.724 10.6575 159.523 11.1882 160.78 12.2496C162.062 13.311 162.703 14.8324 162.703 16.8137V28.7371H160.041V27.0034C159.203 27.6874 158.278 28.2064 157.267 28.5602C156.281 28.8904 155.209 29.0555 154.051 29.0555ZM149.835 23.6422C149.835 24.6329 150.267 25.4467 151.13 26.0835C152.017 26.6968 153.151 27.0034 154.531 27.0034C155.641 27.0034 156.651 26.8383 157.563 26.5081C158.475 26.1779 159.301 25.6589 160.041 24.9513V21.6255C159.276 21.1302 158.451 20.7764 157.563 20.5641C156.701 20.3282 155.739 20.2103 154.679 20.2103C153.2 20.2103 152.017 20.5287 151.13 21.1656C150.267 21.7788 149.835 22.6044 149.835 23.6422Z" fill="white"/>
<path d="M166.349 28.7371V11.0113H169.086V13.5233C169.628 12.6034 170.343 11.8958 171.23 11.4005C172.118 10.8815 173.128 10.6221 174.262 10.6221C174.607 10.6221 174.915 10.6457 175.187 10.6928C175.458 10.7164 175.729 10.7754 176 10.8697V13.2756C175.68 13.1813 175.359 13.1105 175.039 13.0634C174.718 12.9926 174.398 12.9572 174.077 12.9572C172.943 12.9572 171.945 13.2756 171.082 13.9125C170.22 14.5258 169.554 15.4221 169.086 16.6014V28.7371H166.349Z" fill="white"/>
<path fill-rule="evenodd" clip-rule="evenodd" d="M16.269 0.563453C23.4636 -0.187818 30.7619 -0.187818 37.9566 0.563453C42.4418 1.03177 44.4719 4.57611 46.4614 8.04947C46.6753 8.42311 46.8889 8.79592 47.105 9.16401C47.1322 9.13687 47.1604 9.10965 47.1892 9.08228C47.2267 9.04659 47.2652 9.01066 47.3041 8.97434C47.6951 8.60967 48.1269 8.20691 47.9773 7.63301L47.7864 6.90064C47.6201 6.26285 48.1402 5.65407 48.8 5.71426L50.6414 5.88227C51.7763 5.98582 52.6098 6.98802 52.5495 8.10817C52.5306 8.45847 52.2418 8.73417 51.8891 8.73856L49.3143 9.02601C48.9073 9.07145 48.5951 9.3765 48.3043 9.66069L48.2593 9.70456C48.243 9.7205 48.2267 9.73633 48.2104 9.752C48.1717 9.78921 48.1333 9.82548 48.095 9.86013C50.6414 10.396 53.3704 11.5935 53.6163 15.2965V16.1014C54.0117 16.6237 54.2256 17.2592 54.2256 17.9135V29.903C54.1099 30.789 53.306 31.6158 52.4076 31.6158H47.2057C46.3074 31.6158 45.5791 30.8915 45.5791 29.9981V28.9514H8.64644V29.9981C8.64644 30.8915 7.9182 31.6158 7.01988 31.6158H1.81793C0.919604 31.6158 0.115699 30.789 0 29.903V17.9135C0 17.2592 0.213892 16.6237 0.609276 16.1014V15.2965C0.855168 11.5935 3.58414 10.396 6.13054 9.86013C6.09222 9.82548 6.05383 9.78921 6.0152 9.752C5.98408 9.72204 5.95281 9.69149 5.92128 9.66069C5.63046 9.3765 5.31827 9.07145 4.91127 9.02601L2.33649 8.73856C1.98378 8.73417 1.69493 8.45847 1.67607 8.10817C1.61573 6.98802 2.44929 5.98582 3.58414 5.88227L5.42557 5.71426C6.08532 5.65407 6.60543 6.26285 6.43917 6.90064L6.24824 7.63301C6.09864 8.20691 6.53045 8.60967 6.92142 8.97434C6.94012 8.99179 6.95872 9.00914 6.97717 9.02642C6.99713 9.04511 7.0169 9.06372 7.03641 9.08228C7.06517 9.10965 7.09333 9.13687 7.12061 9.16401C7.33668 8.79592 7.55022 8.42311 7.76423 8.04947C9.75365 4.57611 11.7837 1.03177 16.269 0.563453ZM30.363 24.9837C35.4724 25.1093 38.0672 25.1731 39.4226 21.1661C39.9664 19.5586 39.2255 18.2176 37.9349 18.0151C34.4486 17.035 30.1646 17.035 27.1128 17.035C24.061 17.035 19.777 17.035 16.2907 18.0151C15.0001 18.2176 14.2592 19.5586 14.8029 21.1661C16.1584 25.1731 18.7532 25.1093 23.8626 24.9837C26.0308 24.9304 28.1947 24.9304 30.363 24.9837ZM43.96 9.07846C44.859 9.07846 44.3598 8.16101 44.1351 7.77635C42.6594 5.25076 41.2427 2.82617 37.8402 2.38754C30.8519 1.48659 23.3737 1.48659 16.3854 2.38754C12.9829 2.82617 11.5662 5.25076 10.0905 7.77635C9.86576 8.16101 9.36656 9.07846 10.2656 9.07846H43.96ZM5.10183 14.4083C4.61607 14.2509 4.09584 14.5113 3.93987 14.99C3.7839 15.4687 4.05125 15.9843 4.537 16.1417L12.0492 18.5755C12.535 18.7329 13.0552 18.4725 13.2112 17.9938C13.3671 17.5151 13.0998 16.9995 12.614 16.8421L5.10183 14.4083ZM49.1237 14.4083C49.6095 14.2509 50.1297 14.5113 50.2857 14.99C50.4417 15.4687 50.1743 15.9843 49.6886 16.1417L42.1764 18.5755C41.6906 18.7329 41.1704 18.4725 41.0144 17.9938C40.8584 17.5151 41.1258 16.9995 41.6115 16.8421L49.1237 14.4083Z" fill="white"/>
</svg>
