<svg width="680" height="80" viewBox="0 0 680 80" fill="none" xmlns="http://www.w3.org/2000/svg">
<path d="M29.6533 39.9014C28.555 39.9014 27.6868 40.2682 27.0488 41.002C26.4154 41.7311 26.0986 42.7314 26.0986 44.0029C26.0986 45.3109 26.404 46.3226 27.0146 47.0381C27.6299 47.749 28.5049 48.1045 29.6396 48.1045C30.3369 48.1045 31.1322 47.9792 32.0254 47.7285V48.7471C31.3327 49.0068 30.4782 49.1367 29.4619 49.1367C27.9899 49.1367 26.8529 48.6901 26.0508 47.7969C25.2533 46.9036 24.8545 45.6344 24.8545 43.9893C24.8545 42.9593 25.0459 42.057 25.4287 41.2822C25.8161 40.5075 26.3721 39.9105 27.0967 39.4912C27.8258 39.0719 28.6826 38.8623 29.667 38.8623C30.7152 38.8623 31.6312 39.0537 32.415 39.4365L31.9229 40.4346C31.1663 40.0791 30.4098 39.9014 29.6533 39.9014ZM39.1621 49V44.1533C39.1621 43.5426 39.0231 43.0869 38.7451 42.7861C38.4671 42.4854 38.0319 42.335 37.4395 42.335C36.651 42.335 36.0745 42.5492 35.71 42.9775C35.3499 43.4059 35.1699 44.1077 35.1699 45.083V49H34.0352V38.3633H35.1699V41.583C35.1699 41.9704 35.1517 42.2917 35.1152 42.5469H35.1836C35.4069 42.1868 35.7236 41.9043 36.1338 41.6992C36.5485 41.4896 37.0202 41.3848 37.5488 41.3848C38.4648 41.3848 39.1507 41.6035 39.6064 42.041C40.0667 42.474 40.2969 43.1644 40.2969 44.1123V49H39.1621ZM49.1016 45.2471C49.1016 46.4684 48.7939 47.4232 48.1787 48.1113C47.5635 48.7949 46.7135 49.1367 45.6289 49.1367C44.959 49.1367 44.3643 48.9795 43.8447 48.665C43.3252 48.3506 42.9242 47.8994 42.6416 47.3115C42.359 46.7236 42.2178 46.0355 42.2178 45.2471C42.2178 44.0257 42.5231 43.0755 43.1338 42.3965C43.7445 41.7129 44.5921 41.3711 45.6768 41.3711C46.7249 41.3711 47.5566 41.7197 48.1719 42.417C48.7917 43.1143 49.1016 44.0576 49.1016 45.2471ZM43.3936 45.2471C43.3936 46.2041 43.585 46.9333 43.9678 47.4346C44.3506 47.9359 44.9134 48.1865 45.6562 48.1865C46.3991 48.1865 46.9619 47.9382 47.3447 47.4414C47.7321 46.9401 47.9258 46.2087 47.9258 45.2471C47.9258 44.2946 47.7321 43.5723 47.3447 43.0801C46.9619 42.5833 46.3945 42.335 45.6426 42.335C44.8997 42.335 44.3392 42.5788 43.9609 43.0664C43.5827 43.554 43.3936 44.2809 43.3936 45.2471ZM57.5645 45.2471C57.5645 46.4684 57.2568 47.4232 56.6416 48.1113C56.0264 48.7949 55.1764 49.1367 54.0918 49.1367C53.4219 49.1367 52.8271 48.9795 52.3076 48.665C51.7881 48.3506 51.387 47.8994 51.1045 47.3115C50.8219 46.7236 50.6807 46.0355 50.6807 45.2471C50.6807 44.0257 50.986 43.0755 51.5967 42.3965C52.2074 41.7129 53.055 41.3711 54.1396 41.3711C55.1878 41.3711 56.0195 41.7197 56.6348 42.417C57.2546 43.1143 57.5645 44.0576 57.5645 45.2471ZM51.8564 45.2471C51.8564 46.2041 52.0479 46.9333 52.4307 47.4346C52.8135 47.9359 53.3763 48.1865 54.1191 48.1865C54.862 48.1865 55.4248 47.9382 55.8076 47.4414C56.195 46.9401 56.3887 46.2087 56.3887 45.2471C56.3887 44.2946 56.195 43.5723 55.8076 43.0801C55.4248 42.5833 54.8574 42.335 54.1055 42.335C53.3626 42.335 52.8021 42.5788 52.4238 43.0664C52.0456 43.554 51.8564 44.2809 51.8564 45.2471ZM64.3936 46.9561C64.3936 47.6533 64.1338 48.1911 63.6143 48.5693C63.0947 48.9476 62.3656 49.1367 61.4268 49.1367C60.4333 49.1367 59.6585 48.9795 59.1025 48.665V47.6123C59.4626 47.7946 59.8477 47.9382 60.2578 48.043C60.6725 48.1478 61.0713 48.2002 61.4541 48.2002C62.0465 48.2002 62.5023 48.1068 62.8213 47.9199C63.1403 47.7285 63.2998 47.4391 63.2998 47.0518C63.2998 46.7601 63.1722 46.5117 62.917 46.3066C62.6663 46.097 62.1742 45.8509 61.4404 45.5684C60.7432 45.3086 60.2464 45.083 59.9502 44.8916C59.6585 44.6956 59.4398 44.4746 59.2939 44.2285C59.1527 43.9824 59.082 43.6885 59.082 43.3467C59.082 42.736 59.3304 42.2552 59.8271 41.9043C60.3239 41.5488 61.0052 41.3711 61.8711 41.3711C62.6777 41.3711 63.4661 41.5352 64.2363 41.8633L63.833 42.7861C63.0811 42.4762 62.3997 42.3213 61.7891 42.3213C61.2513 42.3213 60.8457 42.4056 60.5723 42.5742C60.2988 42.7428 60.1621 42.9753 60.1621 43.2715C60.1621 43.472 60.2122 43.6429 60.3125 43.7842C60.4173 43.9255 60.5837 44.0599 60.8115 44.1875C61.0394 44.3151 61.4769 44.4997 62.124 44.7412C63.0127 45.0648 63.612 45.3906 63.9219 45.7188C64.2363 46.0469 64.3936 46.4593 64.3936 46.9561ZM69.4111 49.1367C68.3037 49.1367 67.4287 48.7995 66.7861 48.125C66.1481 47.4505 65.8291 46.514 65.8291 45.3154C65.8291 44.1077 66.1253 43.1484 66.7178 42.4375C67.3148 41.7266 68.1146 41.3711 69.1172 41.3711C70.056 41.3711 70.7988 41.681 71.3457 42.3008C71.8926 42.916 72.166 43.7295 72.166 44.7412V45.459H67.0049C67.0277 46.3385 67.2487 47.0062 67.668 47.4619C68.0918 47.9176 68.6865 48.1455 69.4521 48.1455C70.2588 48.1455 71.0563 47.9769 71.8447 47.6396V48.6514C71.4437 48.8245 71.0632 48.9476 70.7031 49.0205C70.3477 49.098 69.917 49.1367 69.4111 49.1367ZM69.1035 42.3213C68.502 42.3213 68.0212 42.5173 67.6611 42.9092C67.3057 43.3011 67.096 43.8434 67.0322 44.5361H70.9492C70.9492 43.8206 70.7897 43.2738 70.4707 42.8955C70.1517 42.5127 69.696 42.3213 69.1035 42.3213ZM82.3516 49L82.126 47.9336H82.0713C81.6976 48.403 81.3239 48.722 80.9502 48.8906C80.5811 49.0547 80.1185 49.1367 79.5625 49.1367C78.8197 49.1367 78.2363 48.9453 77.8125 48.5625C77.3932 48.1797 77.1836 47.6351 77.1836 46.9287C77.1836 45.4157 78.3936 44.6227 80.8135 44.5498L82.085 44.5088V44.0439C82.085 43.4561 81.9574 43.0231 81.7021 42.7451C81.4515 42.4626 81.0482 42.3213 80.4922 42.3213C79.8678 42.3213 79.1615 42.5127 78.373 42.8955L78.0244 42.0273C78.3936 41.8268 78.7969 41.6696 79.2344 41.5557C79.6764 41.4417 80.1185 41.3848 80.5605 41.3848C81.4538 41.3848 82.1146 41.583 82.543 41.9795C82.9759 42.376 83.1924 43.0117 83.1924 43.8867V49H82.3516ZM79.7881 48.2002C80.4945 48.2002 81.0482 48.0065 81.4492 47.6191C81.8548 47.2318 82.0576 46.6895 82.0576 45.9922V45.3154L80.9229 45.3633C80.0205 45.3952 79.3688 45.5365 78.9678 45.7871C78.5713 46.0332 78.373 46.4183 78.373 46.9424C78.373 47.3525 78.4961 47.6647 78.7422 47.8789C78.9928 48.0931 79.3415 48.2002 79.7881 48.2002ZM92.168 49.1367C91.0833 49.1367 90.2425 48.804 89.6455 48.1387C89.0531 47.4688 88.7568 46.5231 88.7568 45.3018C88.7568 44.0485 89.0576 43.0801 89.6592 42.3965C90.2653 41.7129 91.1266 41.3711 92.2432 41.3711C92.6032 41.3711 92.9632 41.4098 93.3232 41.4873C93.6833 41.5648 93.9658 41.6559 94.1709 41.7607L93.8223 42.7246C93.5716 42.6243 93.2982 42.5423 93.002 42.4785C92.7057 42.4102 92.4437 42.376 92.2158 42.376C90.6937 42.376 89.9326 43.3467 89.9326 45.2881C89.9326 46.2087 90.1172 46.915 90.4863 47.4072C90.86 47.8994 91.4115 48.1455 92.1406 48.1455C92.765 48.1455 93.4053 48.0111 94.0615 47.7422V48.7471C93.5602 49.0068 92.929 49.1367 92.168 49.1367ZM100.453 49L100.228 47.9336H100.173C99.7992 48.403 99.4255 48.722 99.0518 48.8906C98.6826 49.0547 98.2201 49.1367 97.6641 49.1367C96.9212 49.1367 96.3379 48.9453 95.9141 48.5625C95.4948 48.1797 95.2852 47.6351 95.2852 46.9287C95.2852 45.4157 96.4951 44.6227 98.915 44.5498L100.187 44.5088V44.0439C100.187 43.4561 100.059 43.0231 99.8037 42.7451C99.5531 42.4626 99.1497 42.3213 98.5938 42.3213C97.9694 42.3213 97.263 42.5127 96.4746 42.8955L96.126 42.0273C96.4951 41.8268 96.8984 41.6696 97.3359 41.5557C97.778 41.4417 98.2201 41.3848 98.6621 41.3848C99.5553 41.3848 100.216 41.583 100.645 41.9795C101.077 42.376 101.294 43.0117 101.294 43.8867V49H100.453ZM97.8896 48.2002C98.596 48.2002 99.1497 48.0065 99.5508 47.6191C99.9564 47.2318 100.159 46.6895 100.159 45.9922V45.3154L99.0244 45.3633C98.1221 45.3952 97.4704 45.5365 97.0693 45.7871C96.6729 46.0332 96.4746 46.4183 96.4746 46.9424C96.4746 47.3525 96.5977 47.6647 96.8438 47.8789C97.0944 48.0931 97.443 48.2002 97.8896 48.2002ZM106.059 48.2002C106.259 48.2002 106.453 48.1865 106.64 48.1592C106.826 48.1273 106.975 48.0954 107.084 48.0635V48.9316C106.961 48.9909 106.779 49.0387 106.537 49.0752C106.3 49.1162 106.086 49.1367 105.895 49.1367C104.445 49.1367 103.721 48.3734 103.721 46.8467V42.3896H102.647V41.8428L103.721 41.3711L104.199 39.7715H104.855V41.5078H107.029V42.3896H104.855V46.7988C104.855 47.25 104.963 47.5964 105.177 47.8379C105.391 48.0794 105.685 48.2002 106.059 48.2002ZM111.753 49.1367C110.646 49.1367 109.771 48.7995 109.128 48.125C108.49 47.4505 108.171 46.514 108.171 45.3154C108.171 44.1077 108.467 43.1484 109.06 42.4375C109.657 41.7266 110.456 41.3711 111.459 41.3711C112.398 41.3711 113.141 41.681 113.688 42.3008C114.234 42.916 114.508 43.7295 114.508 44.7412V45.459H109.347C109.369 46.3385 109.59 47.0062 110.01 47.4619C110.434 47.9176 111.028 48.1455 111.794 48.1455C112.601 48.1455 113.398 47.9769 114.187 47.6396V48.6514C113.785 48.8245 113.405 48.9476 113.045 49.0205C112.689 49.098 112.259 49.1367 111.753 49.1367ZM111.445 42.3213C110.844 42.3213 110.363 42.5173 110.003 42.9092C109.647 43.3011 109.438 43.8434 109.374 44.5361H113.291C113.291 43.8206 113.132 43.2738 112.812 42.8955C112.493 42.5127 112.038 42.3213 111.445 42.3213ZM122.581 41.5078V42.2256L121.193 42.3896C121.321 42.5492 121.435 42.7588 121.535 43.0186C121.635 43.2738 121.686 43.5632 121.686 43.8867C121.686 44.6204 121.435 45.2061 120.934 45.6436C120.432 46.0811 119.744 46.2998 118.869 46.2998C118.646 46.2998 118.436 46.2816 118.24 46.2451C117.757 46.5003 117.516 46.8216 117.516 47.209C117.516 47.4141 117.6 47.5667 117.769 47.667C117.937 47.7627 118.227 47.8105 118.637 47.8105H119.963C120.774 47.8105 121.396 47.9814 121.829 48.3232C122.267 48.665 122.485 49.1618 122.485 49.8135C122.485 50.6429 122.153 51.2741 121.487 51.707C120.822 52.1445 119.851 52.3633 118.575 52.3633C117.595 52.3633 116.839 52.181 116.306 51.8164C115.777 51.4518 115.513 50.9368 115.513 50.2715C115.513 49.8158 115.659 49.4215 115.95 49.0889C116.242 48.7562 116.652 48.5306 117.181 48.4121C116.989 48.3255 116.827 48.1911 116.695 48.0088C116.568 47.8265 116.504 47.6146 116.504 47.373C116.504 47.0996 116.577 46.8604 116.723 46.6553C116.868 46.4502 117.099 46.252 117.413 46.0605C117.026 45.901 116.709 45.6299 116.463 45.2471C116.221 44.8643 116.101 44.4268 116.101 43.9346C116.101 43.1143 116.347 42.4831 116.839 42.041C117.331 41.5944 118.028 41.3711 118.931 41.3711C119.323 41.3711 119.676 41.4167 119.99 41.5078H122.581ZM116.606 50.2578C116.606 50.6634 116.777 50.971 117.119 51.1807C117.461 51.3903 117.951 51.4951 118.589 51.4951C119.541 51.4951 120.245 51.3516 120.701 51.0645C121.161 50.7819 121.392 50.3968 121.392 49.9092C121.392 49.5036 121.266 49.221 121.016 49.0615C120.765 48.9066 120.293 48.8291 119.601 48.8291H118.24C117.725 48.8291 117.324 48.9521 117.037 49.1982C116.75 49.4443 116.606 49.7975 116.606 50.2578ZM117.222 43.9072C117.222 44.4313 117.37 44.8278 117.666 45.0967C117.962 45.3656 118.375 45.5 118.903 45.5C120.011 45.5 120.564 44.9622 120.564 43.8867C120.564 42.7611 120.004 42.1982 118.883 42.1982C118.35 42.1982 117.939 42.3418 117.652 42.6289C117.365 42.916 117.222 43.3421 117.222 43.9072ZM130.586 45.2471C130.586 46.4684 130.278 47.4232 129.663 48.1113C129.048 48.7949 128.198 49.1367 127.113 49.1367C126.443 49.1367 125.849 48.9795 125.329 48.665C124.81 48.3506 124.409 47.8994 124.126 47.3115C123.843 46.7236 123.702 46.0355 123.702 45.2471C123.702 44.0257 124.007 43.0755 124.618 42.3965C125.229 41.7129 126.076 41.3711 127.161 41.3711C128.209 41.3711 129.041 41.7197 129.656 42.417C130.276 43.1143 130.586 44.0576 130.586 45.2471ZM124.878 45.2471C124.878 46.2041 125.069 46.9333 125.452 47.4346C125.835 47.9359 126.398 48.1865 127.141 48.1865C127.883 48.1865 128.446 47.9382 128.829 47.4414C129.216 46.9401 129.41 46.2087 129.41 45.2471C129.41 44.2946 129.216 43.5723 128.829 43.0801C128.446 42.5833 127.879 42.335 127.127 42.335C126.384 42.335 125.824 42.5788 125.445 43.0664C125.067 43.554 124.878 44.2809 124.878 45.2471ZM136 41.3711C136.333 41.3711 136.631 41.3984 136.896 41.4531L136.738 42.5059C136.428 42.4375 136.155 42.4033 135.918 42.4033C135.312 42.4033 134.792 42.6494 134.359 43.1416C133.931 43.6338 133.717 44.2467 133.717 44.9805V49H132.582V41.5078H133.519L133.648 42.8955H133.703C133.981 42.4079 134.316 42.0319 134.708 41.7676C135.1 41.5033 135.531 41.3711 136 41.3711ZM137.107 41.5078H138.324L139.965 45.7803C140.325 46.7555 140.548 47.4596 140.635 47.8926H140.689C140.749 47.6602 140.872 47.2637 141.059 46.7031C141.25 46.138 141.87 44.4062 142.918 41.5078H144.135L140.915 50.0391C140.596 50.8822 140.222 51.4792 139.794 51.8301C139.37 52.1855 138.848 52.3633 138.229 52.3633C137.882 52.3633 137.54 52.3245 137.203 52.2471V51.3379C137.454 51.3926 137.734 51.4199 138.044 51.4199C138.823 51.4199 139.379 50.9824 139.712 50.1074L140.129 49.041L137.107 41.5078Z" fill="#262626"/>
<path fill-rule="evenodd" clip-rule="evenodd" d="M657.653 40.2459C657.228 39.8947 656.6 39.9518 656.245 40.3739L652.012 45.4523L647.78 40.3739C647.553 40.0918 647.192 39.9541 646.835 40.0137C646.478 40.0733 646.182 40.321 646.059 40.6615C645.937 41.0019 646.008 41.3819 646.245 41.6552L651.245 47.6552C651.434 47.8829 651.716 48.0146 652.012 48.0146C652.309 48.0146 652.59 47.8829 652.78 47.6552L657.78 41.6552C658.134 41.231 658.077 40.6004 657.653 40.2459Z" fill="#A6A6A6"/>
<rect x="8.5" y="24.5" width="663" height="39" rx="3.5" stroke="#D9D9D9"/>
<path d="M17.4473 9.90723C17.4473 11.557 16.9893 12.8193 16.0732 13.6943C15.1572 14.5648 13.8379 15 12.1152 15H9.31934V5.00586H12.4092C13.9997 5.00586 15.237 5.43424 16.1211 6.29102C17.0052 7.14779 17.4473 8.35319 17.4473 9.90723ZM15.7246 9.96191C15.7246 7.56934 14.6058 6.37305 12.3682 6.37305H10.9531V13.626H12.1152C14.5215 13.626 15.7246 12.4046 15.7246 9.96191ZM23.2646 7.30273C23.5882 7.30273 23.8548 7.32552 24.0645 7.37109L23.9072 8.86816C23.6794 8.81348 23.4424 8.78613 23.1963 8.78613C22.5537 8.78613 22.0319 8.99577 21.6309 9.41504C21.2344 9.83431 21.0361 10.3789 21.0361 11.0488V15H19.4297V7.43945H20.6875L20.8994 8.77246H20.9814C21.2321 8.32129 21.5579 7.96354 21.959 7.69922C22.3646 7.4349 22.7998 7.30273 23.2646 7.30273ZM32.1787 11.2061C32.1787 12.4411 31.862 13.4049 31.2285 14.0977C30.5951 14.7904 29.7132 15.1367 28.583 15.1367C27.8766 15.1367 27.2523 14.9772 26.71 14.6582C26.1676 14.3392 25.7507 13.8812 25.459 13.2842C25.1673 12.6872 25.0215 11.9945 25.0215 11.2061C25.0215 9.98014 25.3359 9.02311 25.9648 8.33496C26.5938 7.64681 27.4801 7.30273 28.624 7.30273C29.7178 7.30273 30.5837 7.65592 31.2217 8.3623C31.8597 9.06413 32.1787 10.012 32.1787 11.2061ZM26.6758 11.2061C26.6758 12.9515 27.3206 13.8242 28.6104 13.8242C29.8864 13.8242 30.5244 12.9515 30.5244 11.2061C30.5244 9.47884 29.8818 8.61523 28.5967 8.61523C27.9222 8.61523 27.4323 8.83854 27.127 9.28516C26.8262 9.73177 26.6758 10.3721 26.6758 11.2061ZM37.8662 15.1367C36.9092 15.1367 36.1663 14.7926 35.6377 14.1045H35.542C35.6058 14.7425 35.6377 15.1299 35.6377 15.2666V18.3633H34.0312V7.43945H35.3301C35.3665 7.58073 35.4417 7.91797 35.5557 8.45117H35.6377C36.139 7.68555 36.891 7.30273 37.8936 7.30273C38.8369 7.30273 39.5706 7.64453 40.0947 8.32812C40.6234 9.01172 40.8877 9.97103 40.8877 11.2061C40.8877 12.4411 40.6188 13.4049 40.0811 14.0977C39.5479 14.7904 38.8096 15.1367 37.8662 15.1367ZM37.4766 8.61523C36.8385 8.61523 36.3714 8.80208 36.0752 9.17578C35.7835 9.54948 35.6377 10.1465 35.6377 10.9668V11.2061C35.6377 12.1266 35.7835 12.7943 36.0752 13.209C36.3669 13.6191 36.8431 13.8242 37.5039 13.8242C38.0599 13.8242 38.4883 13.5964 38.7891 13.1406C39.0898 12.6849 39.2402 12.0355 39.2402 11.1924C39.2402 10.3447 39.0898 9.70443 38.7891 9.27148C38.4928 8.83398 38.0553 8.61523 37.4766 8.61523ZM45.3037 15.1367C44.3604 15.1367 43.6243 14.7949 43.0957 14.1113C42.5671 13.4277 42.3027 12.4684 42.3027 11.2334C42.3027 9.99382 42.5693 9.02995 43.1025 8.3418C43.6403 7.64909 44.3831 7.30273 45.3311 7.30273C46.3245 7.30273 47.0811 7.6696 47.6006 8.40332H47.6826C47.6051 7.861 47.5664 7.43262 47.5664 7.11816V4.36328H49.1797V15H47.9219L47.6416 14.0088H47.5664C47.0514 14.7607 46.2972 15.1367 45.3037 15.1367ZM45.7344 13.8379C46.3952 13.8379 46.876 13.6533 47.1768 13.2842C47.4775 12.9105 47.6325 12.3066 47.6416 11.4727V11.2471C47.6416 10.2946 47.4867 9.61784 47.1768 9.2168C46.8669 8.81576 46.3815 8.61523 45.7207 8.61523C45.1556 8.61523 44.7204 8.84538 44.415 9.30566C44.1097 9.76139 43.957 10.4131 43.957 11.2607C43.957 12.0993 44.1051 12.7396 44.4014 13.1816C44.6976 13.6191 45.1419 13.8379 45.7344 13.8379ZM58.1826 11.2061C58.1826 12.4411 57.8659 13.4049 57.2324 14.0977C56.599 14.7904 55.7171 15.1367 54.5869 15.1367C53.8805 15.1367 53.2562 14.9772 52.7139 14.6582C52.1715 14.3392 51.7546 13.8812 51.4629 13.2842C51.1712 12.6872 51.0254 11.9945 51.0254 11.2061C51.0254 9.98014 51.3398 9.02311 51.9688 8.33496C52.5977 7.64681 53.484 7.30273 54.6279 7.30273C55.7217 7.30273 56.5876 7.65592 57.2256 8.3623C57.8636 9.06413 58.1826 10.012 58.1826 11.2061ZM52.6797 11.2061C52.6797 12.9515 53.3245 13.8242 54.6143 13.8242C55.8903 13.8242 56.5283 12.9515 56.5283 11.2061C56.5283 9.47884 55.8857 8.61523 54.6006 8.61523C53.9261 8.61523 53.4362 8.83854 53.1309 9.28516C52.8301 9.73177 52.6797 10.3721 52.6797 11.2061ZM66.2354 15L65.2578 11.4727C65.1393 11.099 64.9251 10.2308 64.6152 8.86816H64.5537C64.2894 10.0986 64.0798 10.9714 63.9248 11.4863L62.9199 15H61.1426L59.0234 7.43945H60.6641L61.6279 11.165C61.8467 12.0856 62.0016 12.874 62.0928 13.5303H62.1338C62.1794 13.1976 62.2477 12.8171 62.3389 12.3887C62.4346 11.9557 62.5166 11.6322 62.585 11.418L63.7334 7.43945H65.4971L66.6113 11.418C66.6797 11.6413 66.764 11.9831 66.8643 12.4434C66.9691 12.9036 67.0306 13.2614 67.0488 13.5166H67.1035C67.1719 12.9561 67.3314 12.1722 67.582 11.165L68.5596 7.43945H70.1729L68.04 15H66.2354ZM78.1299 15H76.5166V10.3516C76.5166 9.76823 76.3981 9.33301 76.1611 9.0459C75.9287 8.75879 75.5573 8.61523 75.0469 8.61523C74.3678 8.61523 73.8711 8.81576 73.5566 9.2168C73.2422 9.61784 73.085 10.29 73.085 11.2334V15H71.4785V7.43945H72.7363L72.9619 8.43066H73.0439C73.2718 8.07064 73.5954 7.79264 74.0146 7.59668C74.4339 7.40072 74.8988 7.30273 75.4092 7.30273C77.223 7.30273 78.1299 8.22559 78.1299 10.0713V15Z" fill="#262626"/>
</svg>
