<svg width="24" height="24" viewBox="0 0 24 24" fill="none" xmlns="http://www.w3.org/2000/svg">
<path d="M19.8252 4.43999L18.3852 2.98001C18.2652 2.86001 18.1252 2.8 17.9652 2.8C17.8052 2.8 17.6452 2.86001 17.5452 2.98001L9.16519 11.48C9.10519 11.54 9.06517 11.6 9.02517 11.68L8.08518 14.06C8.00518 14.28 8.04517 14.54 8.22517 14.7C8.34517 14.82 8.48517 14.88 8.64517 14.88C8.72517 14.88 8.78519 14.86 8.86519 14.84L11.2252 13.9C11.3052 13.86 11.3652 13.82 11.4252 13.76L19.8052 5.26001C20.0652 5.04001 20.0652 4.65999 19.8252 4.43999ZM10.6852 12.84L9.72517 13.22L10.1052 12.24L17.9652 4.26001L18.5652 4.86001L10.6852 12.84ZM16.8052 12.12V20.2C16.8052 20.64 16.4052 21 15.9652 21H4.60518C4.16518 21 3.80518 20.64 3.80518 20.2V4.96001C3.80518 4.52001 4.16518 4.2 4.60518 4.2H12.9252C13.3652 4.2 13.7252 4.56 13.7252 5C13.7252 5.44 13.3652 5.8 12.9252 5.8H5.40518V19.4H15.2052V12.12C15.2052 11.68 15.5652 11.32 16.0052 11.32C16.4452 11.32 16.8052 11.68 16.8052 12.12Z" fill="#292929"/>
</svg>
