<svg width="24" height="24" viewBox="0 0 24 24" fill="none" xmlns="http://www.w3.org/2000/svg">
<path fill-rule="evenodd" clip-rule="evenodd" d="M24 12C24 5.37258 18.6274 0 12 0C5.37258 0 0 5.37258 0 12C0 18.6274 5.37258 24 12 24C18.6274 24 24 18.6274 24 12ZM9.04501 16.94C9.22501 17.12 9.44502 17.2 9.68502 17.2C9.92502 17.2 10.145 17.12 10.345 16.94L18.965 8.33999C19.325 7.97999 19.325 7.41999 18.965 7.05999C18.605 6.69999 18.045 6.69999 17.685 7.05999L9.70502 15.02L6.34501 11.68C5.98501 11.32 5.42503 11.32 5.06503 11.68C4.70503 12.04 4.70503 12.6 5.06503 12.96L9.04501 16.94Z" fill="#E51A1A"/>
</svg>
