<svg width="14" height="18" viewBox="0 0 14 18" fill="none" xmlns="http://www.w3.org/2000/svg">
<path d="M13.5651 4.90001L9.12507 0.440002C8.96507 0.280002 8.76508 0.200012 8.56508 0.200012H1.00508C0.565078 0.200012 0.205078 0.560012 0.205078 1.00001V17C0.205078 17.44 0.565078 17.8 1.00508 17.8H13.0051C13.4451 17.8 13.8051 17.44 13.8051 17V5.46002C13.8051 5.24002 13.7251 5.04001 13.5651 4.90001ZM12.2051 5.80001H8.20508V1.80001H8.24508L12.2051 5.80001ZM1.80508 16.2V1.80001H6.60508V6.58002C6.60508 7.02002 6.94508 7.40001 7.38508 7.40001H12.2051V16.2H1.80508Z" fill="#808080"/>
</svg>
