<svg width="20" height="20" viewBox="0 0 20 20" fill="none" xmlns="http://www.w3.org/2000/svg">
<path d="M13.2 11.8001H6.8C6.36 11.8001 6 11.4401 6 11.0001C6 10.5601 6.36 10.2001 6.8 10.2001H13.2C13.64 10.2001 14 10.5601 14 11.0001C14 11.4401 13.64 11.8001 13.2 11.8001Z" fill="#808080"/>
<path d="M13.2 15.4001H6.8C6.36 15.4001 6 15.0401 6 14.6001C6 14.1601 6.36 13.8001 6.8 13.8001H13.2C13.64 13.8001 14 14.1601 14 14.6001C14 15.0401 13.64 15.4001 13.2 15.4001Z" fill="#808080"/>
<path d="M18.4048 10.5999C18.2048 10.5999 18.0048 10.5199 17.8448 10.3799L10.0048 2.71992L2.16481 10.3799C1.84481 10.6799 1.3448 10.6799 1.0248 10.3599C0.724803 10.0399 0.72481 9.53992 1.04481 9.21992L9.44481 1.01992C9.76481 0.719922 10.2448 0.719922 10.5648 1.01992L18.9648 9.21992C19.2848 9.51992 19.2848 10.0399 18.9848 10.3599C18.8248 10.5199 18.6048 10.5999 18.4048 10.5999ZM16.6448 18.3999V10.5799C16.6448 10.1399 16.2848 9.77993 15.8448 9.77993C15.4048 9.77993 15.0448 10.1399 15.0448 10.5799V17.5999H4.94481V10.5799C4.94481 10.1399 4.58481 9.77993 4.14481 9.77993C3.70481 9.77993 3.34481 10.1399 3.34481 10.5799V18.3999C3.34481 18.8399 3.70481 19.1999 4.14481 19.1999C8.04481 19.1999 11.9448 19.1999 15.8448 19.1999C16.3048 19.1999 16.6448 18.8399 16.6448 18.3999Z" fill="#808080"/>
</svg>
