<svg width="24" height="24" viewBox="0 0 24 24" fill="none" xmlns="http://www.w3.org/2000/svg">
<g id="heart favourite like">
<path id="XMLID 1114" d="M20.1453 7.19995C19.3253 5.37995 17.6053 4.19995 15.7453 4.19995C13.8853 4.19995 12.6853 5.01995 11.9853 5.89995C11.2853 5.01995 10.0853 4.19995 8.22527 4.19995C6.36527 4.19995 4.64527 5.37995 3.82527 7.19995C2.98527 9.09995 3.34527 11.1999 4.80527 12.8399C8.30527 16.7799 11.4053 19.56 11.4453 19.58C11.6053 19.72 11.7853 19.78 11.9853 19.78C12.1853 19.78 12.3653 19.72 12.5253 19.58C12.5653 19.56 15.6453 16.7599 19.1653 12.8399C20.6453 11.1999 21.0053 9.09995 20.1453 7.19995ZM17.9853 11.78C15.3853 14.68 13.0253 16.96 12.0053 17.9C10.9853 16.9399 8.62527 14.68 6.02527 11.76C4.98527 10.58 4.72527 9.15995 5.30527 7.81995C5.84527 6.59995 7.02527 5.75996 8.24527 5.75996C10.6253 5.75996 11.1653 7.53996 11.2253 7.75996C11.3053 8.11996 11.6253 8.35996 11.9853 8.35996C12.3453 8.35996 12.6653 8.09996 12.7653 7.75996C12.8253 7.55996 13.3653 5.75996 15.7453 5.75996C16.9453 5.75996 18.1253 6.57995 18.6853 7.81995C19.2853 9.17995 19.0253 10.6 17.9853 11.78ZM17.7853 9.45996C17.8053 9.83996 17.5253 10.18 17.1253 10.2C17.1053 10.2 17.0853 10.2 17.0853 10.2C16.7253 10.2 16.4053 9.91994 16.3853 9.53994C16.3053 8.39994 15.5653 8.21995 15.4253 8.19995C15.0453 8.13995 14.7853 7.79995 14.8253 7.41995C14.8853 7.03995 15.2453 6.77995 15.6253 6.81995C16.3253 6.91995 17.6653 7.59996 17.7853 9.45996ZM16.8253 10.6199C16.9853 10.7799 17.0653 10.98 17.0653 11.18C17.0653 11.4 16.9853 11.5999 16.8253 11.7399C16.6853 11.8999 16.4653 11.98 16.2653 11.98C16.0653 11.98 15.8453 11.8999 15.7053 11.7399C15.5453 11.5999 15.4653 11.38 15.4653 11.18C15.4653 10.98 15.5453 10.7599 15.7053 10.6199C15.8453 10.4799 16.0653 10.38 16.2653 10.38C16.4653 10.4 16.6653 10.4799 16.8253 10.6199Z" fill="white"/>
</g>
</svg>
