<svg width="18" height="16" viewBox="0 0 18 16" fill="none" xmlns="http://www.w3.org/2000/svg">
<path d="M17.1453 3.2C16.3253 1.38 14.6053 0.199997 12.7453 0.199997C10.8853 0.199997 9.68526 1.02 8.98526 1.9C8.28526 1.02 7.08527 0.199997 5.22527 0.199997C3.36527 0.199997 1.64527 1.38 0.825267 3.2C-0.0147327 5.1 0.345266 7.19999 1.80527 8.83999C5.30527 12.78 8.40527 15.56 8.44527 15.58C8.60527 15.72 8.78526 15.78 8.98526 15.78C9.18526 15.78 9.36527 15.72 9.52527 15.58C9.56527 15.56 12.6453 12.76 16.1653 8.83999C17.6453 7.19999 18.0053 5.1 17.1453 3.2ZM14.9853 7.78C12.3853 10.68 10.0253 12.96 9.00527 13.9C7.98527 12.94 5.62527 10.68 3.02527 7.76001C1.98527 6.58001 1.72527 5.15999 2.30527 3.81999C2.84527 2.59999 4.02527 1.76001 5.24527 1.76001C7.62527 1.76001 8.16527 3.54001 8.22527 3.76001C8.30527 4.12001 8.62527 4.36001 8.98526 4.36001C9.34526 4.36001 9.66526 4.10001 9.76526 3.76001C9.82526 3.56001 10.3653 1.76001 12.7453 1.76001C13.9453 1.76001 15.1253 2.57999 15.6853 3.81999C16.2853 5.17999 16.0253 6.6 14.9853 7.78Z" fill="black"/>
</svg>
