<svg width="20" height="20" viewBox="0 0 20 20" fill="none" xmlns="http://www.w3.org/2000/svg">
<path d="M12.9847 5.9C13.6247 6.62 13.9247 7.59999 13.7847 8.63999C13.5447 10.56 12.1447 11.24 10.9047 11.24C10.8447 11.24 10.8047 11.24 10.8047 11.24V11.72C10.8047 12.16 10.4447 12.52 10.0047 12.52C9.56469 12.52 9.20469 12.16 9.20469 11.72V11.08C9.20469 10.42 9.48469 9.63999 10.9047 9.63999C11.6847 9.63999 12.0847 9.23999 12.1847 8.43999C12.2247 8.17999 12.2447 7.48001 11.7647 6.96001C11.3847 6.54001 10.7647 6.32 9.92468 6.32C8.12468 6.32 8.0647 7.5 8.0647 7.62C8.0647 8.06 7.7047 8.42 7.2647 8.42C6.8247 8.42 6.4647 8.06 6.4647 7.62C6.4647 6.82 7.08468 4.72 9.92468 4.72C11.5847 4.72 12.5047 5.36 12.9847 5.9ZM9.94468 13.2C9.68468 13.2 9.42468 13.3 9.24468 13.5C9.06468 13.68 8.94468 13.94 8.94468 14.2C8.94468 14.46 9.04468 14.72 9.24468 14.9C9.42468 15.08 9.68468 15.2 9.94468 15.2C10.2047 15.2 10.4647 15.1 10.6447 14.9C10.8247 14.72 10.9447 14.46 10.9447 14.2C10.9447 13.94 10.8447 13.68 10.6447 13.5C10.4847 13.32 10.2247 13.2 9.94468 13.2ZM19.2047 10C19.2047 15.08 15.0847 19.2 10.0047 19.2C4.92469 19.2 0.804688 15.08 0.804688 10C0.804688 4.92 4.92469 0.800003 10.0047 0.800003C15.0847 0.800003 19.2047 4.92 19.2047 10ZM17.6047 10C17.6047 5.8 14.2047 2.4 10.0047 2.4C5.80469 2.4 2.40469 5.8 2.40469 10C2.40469 14.2 5.80469 17.6 10.0047 17.6C14.2047 17.6 17.6047 14.2 17.6047 10Z" fill="#C4C4C4"/>
</svg>
