<svg width="166" height="49" viewBox="0 0 166 49" fill="none" xmlns="http://www.w3.org/2000/svg">
<path d="M83.5284 35.7789V34.3704C82.8515 34.9163 82.0981 35.3312 81.2682 35.6151C80.4384 35.8772 79.5758 36.0082 78.6805 36.0082C77.4794 36.0082 76.3438 35.7789 75.2738 35.3203C74.2256 34.8617 73.3084 34.2393 72.5222 33.4532C71.7361 32.667 71.1137 31.7389 70.6551 30.6689C70.2184 29.5988 70 28.4524 70 27.2295C70 26.0065 70.2293 24.8601 70.6879 23.79C71.1465 22.72 71.7688 21.7919 72.555 21.0057C73.3412 20.2196 74.2693 19.6081 75.3393 19.1714C76.4312 18.7128 77.5886 18.4835 78.8115 18.4835C79.6413 18.4835 80.4493 18.6036 81.2355 18.8438C82.0435 19.0622 82.7859 19.3897 83.4629 19.8265V12.8494L87.9505 11.8667V35.7789H83.5284ZM74.4221 27.2295C74.4221 28.6052 74.9026 29.7735 75.8634 30.7344C76.8243 31.6953 78.0035 32.1757 79.4011 32.1757C80.2309 32.1757 80.9843 32.0337 81.6613 31.7498C82.3601 31.466 82.9606 31.062 83.4629 30.5379V23.8883C82.9825 23.386 82.3819 22.993 81.6613 22.7091C80.9625 22.4252 80.2091 22.2832 79.4011 22.2832C77.9817 22.2832 76.7915 22.7637 75.8307 23.7245C74.8916 24.6635 74.4221 25.8318 74.4221 27.2295Z" fill="white"/>
<path d="M105.961 33.6497C104.913 34.5014 103.832 35.1238 102.718 35.5168C101.626 35.9099 100.404 36.1065 99.0496 36.1065C97.7612 36.1065 96.5492 35.8772 95.4136 35.4186C94.2999 34.96 93.3282 34.3376 92.4983 33.5515C91.6903 32.7653 91.0461 31.8372 90.5657 30.7672C90.1071 29.6753 89.8778 28.507 89.8778 27.2622C89.8778 26.0393 90.0962 24.8928 90.5329 23.8228C90.9915 22.7309 91.6139 21.7919 92.4001 21.0057C93.1862 20.1977 94.1143 19.5644 95.1844 19.1058C96.2762 18.6473 97.4336 18.418 98.6565 18.418C99.8576 18.418 100.971 18.6582 101.998 19.1386C103.046 19.5972 103.941 20.2305 104.684 21.0385C105.448 21.8465 106.038 22.8182 106.453 23.9538C106.889 25.0675 107.108 26.2795 107.108 27.5898V28.769H94.3982C94.7039 29.8391 95.2935 30.7016 96.167 31.3568C97.0406 32.0119 98.0669 32.3395 99.2462 32.3395C99.9886 32.3395 100.687 32.2194 101.343 31.9791C101.998 31.7389 102.555 31.4004 103.013 30.9637L105.961 33.6497ZM98.5583 22.1194C97.5319 22.1194 96.6475 22.4361 95.905 23.0694C95.1625 23.6808 94.6493 24.5107 94.3654 25.5589H102.718C102.434 24.5543 101.91 23.7354 101.146 23.1021C100.404 22.447 99.541 22.1194 98.5583 22.1194Z" fill="white"/>
<path d="M105.924 35.7789L112.476 27.0984L106.088 18.7128H111.296L115.063 23.79L118.798 18.7128H123.842L117.553 27.0329L124.235 35.7789H118.994L114.965 30.3413L110.936 35.7789H105.924Z" fill="white"/>
<path d="M133.069 33.879C133.943 33.879 134.784 33.7043 135.592 33.3549C136.399 33.0055 137.153 32.4923 137.852 31.8154L139.358 33.4532C138.485 34.283 137.502 34.9272 136.41 35.3858C135.319 35.8444 134.183 36.0737 133.004 36.0737C131.846 36.0737 130.754 35.8553 129.728 35.4186C128.702 34.9818 127.817 34.3813 127.075 33.617C126.332 32.8526 125.743 31.9464 125.306 30.8982C124.869 29.85 124.651 28.7363 124.651 27.557C124.651 26.3778 124.869 25.275 125.306 24.2486C125.743 23.2004 126.332 22.2941 127.075 21.5298C127.817 20.7655 128.702 20.165 129.728 19.7282C130.754 19.2696 131.846 19.0403 133.004 19.0403C134.183 19.0403 135.329 19.2696 136.443 19.7282C137.579 20.1868 138.572 20.8201 139.424 21.6281L137.884 23.3969C137.229 22.72 136.476 22.1959 135.624 21.8246C134.773 21.4534 133.91 21.2678 133.036 21.2678C132.207 21.2678 131.421 21.4316 130.678 21.7591C129.936 22.0867 129.291 22.5344 128.745 23.1021C128.221 23.6699 127.806 24.336 127.501 25.1003C127.195 25.8646 127.042 26.6835 127.042 27.557C127.042 28.4524 127.195 29.2931 127.501 30.0793C127.828 30.8436 128.254 31.5096 128.778 32.0774C129.324 32.6234 129.968 33.0601 130.711 33.3877C131.453 33.7152 132.239 33.879 133.069 33.879Z" fill="white"/>
<path d="M146.555 36.0737C144.764 36.0737 143.301 35.6151 142.166 34.6979C141.052 33.7808 140.495 32.5906 140.495 31.1275C140.495 29.5988 141.085 28.3869 142.264 27.4915C143.443 26.5743 145.037 26.1157 147.046 26.1157C147.92 26.1157 148.761 26.214 149.569 26.4105C150.398 26.6071 151.163 26.8801 151.861 27.2295V25.0675C151.861 23.7573 151.49 22.7746 150.748 22.1194C150.005 21.4425 148.924 21.104 147.505 21.104C146.697 21.104 145.878 21.2241 145.048 21.4643C144.24 21.6827 143.345 22.043 142.362 22.5453L141.445 20.6782C142.624 20.1104 143.716 19.6955 144.721 19.4334C145.725 19.1714 146.73 19.0403 147.734 19.0403C149.809 19.0403 151.403 19.5317 152.517 20.5144C153.652 21.4971 154.22 22.9056 154.22 24.74V35.7789H151.861V34.1738C151.119 34.8071 150.3 35.2875 149.405 35.6151C148.531 35.9208 147.581 36.0737 146.555 36.0737ZM142.821 31.062C142.821 31.9791 143.203 32.7325 143.967 33.3222C144.753 33.8899 145.758 34.1738 146.981 34.1738C147.963 34.1738 148.859 34.021 149.667 33.7152C150.475 33.4095 151.206 32.9291 151.861 32.274V29.1948C151.185 28.7363 150.453 28.4087 149.667 28.2121C148.902 27.9938 148.051 27.8846 147.112 27.8846C145.802 27.8846 144.753 28.1794 143.967 28.769C143.203 29.3368 142.821 30.1011 142.821 31.062Z" fill="white"/>
<path d="M157.451 35.7789V19.3679H159.875V21.6936C160.355 20.8419 160.988 20.1868 161.774 19.7282C162.561 19.2478 163.456 19.0076 164.46 19.0076C164.766 19.0076 165.039 19.0294 165.279 19.0731C165.52 19.0949 165.76 19.1495 166 19.2369V21.4643C165.716 21.377 165.432 21.3115 165.148 21.2678C164.864 21.2023 164.581 21.1695 164.297 21.1695C163.292 21.1695 162.408 21.4643 161.643 22.0539C160.879 22.6217 160.289 23.4515 159.875 24.5434V35.7789H157.451Z" fill="white"/>
<path fill-rule="evenodd" clip-rule="evenodd" d="M37.6883 14H48.0746C53.6799 14 58.2239 18.2981 58.2239 23.6V24.08H58.7313C59.432 24.08 60 24.6173 60 25.28V26.48C60 27.1427 59.432 27.68 58.7313 27.68H58.2239V29.0861C58.6936 29.5216 58.9851 30.1286 58.9851 30.8V35.6C58.9851 36.9255 57.8491 38 56.4478 38H55.1791C53.7778 38 52.6418 36.9255 52.6418 35.6H33.3582C33.3582 36.9255 32.2222 38 30.8209 38H29.5522C28.1509 38 27.0149 36.9255 27.0149 35.6V30.8C27.0149 30.1286 27.3064 29.5216 27.7761 29.0861V27.68H27.2687C26.568 27.68 26 27.1427 26 26.48V25.28C26 24.6173 26.568 24.08 27.2687 24.08H27.7761V23.3758C27.7761 18.1977 32.214 14 37.6883 14ZM30.3134 22.56C30.3134 24.8987 32.6059 26.4 35.4062 26.4H48.0746L50.6119 28.8V26.4H50.5938C53.3941 26.4 55.6866 24.8987 55.6866 22.56C55.6866 20.2213 54.0247 16.4 49.1936 16.4H36.8064C31.9753 16.4 30.3134 20.2213 30.3134 22.56Z" fill="white"/>
</svg>
