<svg width="24" height="24" viewBox="0 0 24 24" fill="none" xmlns="http://www.w3.org/2000/svg">
<path d="M11.505 2.38001C10.3651 1.36001 8.76505 0.800003 7.02504 0.800003C5.28504 0.800003 3.68504 1.36001 2.54504 2.38001C1.16504 3.62001 0.425044 5.48001 0.425044 7.78001C0.425044 12.8 6.20506 18.7 6.46506 18.94C6.62506 19.1 6.82504 19.18 7.02504 19.18C7.22504 19.18 7.44505 19.1 7.58505 18.94C7.82505 18.7 13.625 12.8 13.625 7.78001C13.605 5.48001 12.885 3.62001 11.505 2.38001ZM7.00505 17.22C6.46505 16.62 5.60506 15.62 4.76506 14.42C2.96506 11.86 2.00505 9.58 2.00505 7.8C2.00505 2.8 5.82505 2.4 7.00505 2.4C11.6451 2.4 12.005 6.54 12.005 7.8C12.005 11.32 8.42505 15.66 7.00505 17.22ZM7.00505 4.26C5.24505 4.26 3.82504 5.72 3.82504 7.5C3.82504 9.28 5.24505 10.74 7.00505 10.74C8.76505 10.74 10.1851 9.28 10.1851 7.5C10.1851 5.7 8.76505 4.26 7.00505 4.26ZM7.00505 9.32C6.02505 9.32 5.22504 8.50001 5.22504 7.48001C5.22504 6.46001 6.02505 5.64001 7.00505 5.64001C7.98505 5.64001 8.78506 6.46001 8.78506 7.48001C8.78506 8.50001 7.98505 9.32 7.00505 9.32Z" fill="white"/>
</svg>
