<svg width="152" height="32" viewBox="0 0 152 32" fill="none" xmlns="http://www.w3.org/2000/svg">
<path d="M70.3875 26.6892V25.3527C69.7176 25.8707 68.972 26.2644 68.1508 26.5338C67.3297 26.7824 66.4761 26.9068 65.59 26.9068C64.4015 26.9068 63.2778 26.6892 62.2189 26.2541C61.1816 25.8189 60.2739 25.2284 59.496 24.4824C58.718 23.7365 58.1021 22.8559 57.6483 21.8405C57.2161 20.8252 57 19.7374 57 18.577C57 17.4167 57.2269 16.3288 57.6807 15.3135C58.1345 14.2982 58.7504 13.4176 59.5284 12.6716C60.3064 11.9257 61.2248 11.3455 62.2837 10.9311C63.3642 10.4959 64.5095 10.2784 65.7197 10.2784C66.5409 10.2784 67.3405 10.3923 68.1184 10.6203C68.918 10.8275 69.6528 11.1383 70.3227 11.5527V4.93243L74.7636 4V26.6892H70.3875ZM61.3761 18.577C61.3761 19.8824 61.8515 20.991 62.8023 21.9027C63.7532 22.8144 64.9201 23.2703 66.3032 23.2703C67.1244 23.2703 67.8699 23.1356 68.5398 22.8662C69.2314 22.5968 69.8256 22.2135 70.3227 21.7162V15.4068C69.8472 14.9302 69.253 14.5572 68.5398 14.2878C67.8483 14.0185 67.1028 13.8838 66.3032 13.8838C64.8985 13.8838 63.7208 14.3396 62.7699 15.2514C61.8407 16.1423 61.3761 17.2509 61.3761 18.577Z" fill="white"/>
<path d="M92.5866 24.6689C91.5493 25.477 90.4796 26.0676 89.3775 26.4405C88.297 26.8135 87.0868 27 85.747 27C84.472 27 83.2727 26.7824 82.1489 26.3473C81.0468 25.9122 80.0851 25.3216 79.264 24.5757C78.4644 23.8297 77.8269 22.9491 77.3515 21.9338C76.8977 20.8977 76.6707 19.7892 76.6707 18.6081C76.6707 17.4477 76.8868 16.3599 77.319 15.3446C77.7729 14.3086 78.3888 13.4176 79.1667 12.6716C79.9447 11.905 80.8631 11.3041 81.922 10.8689C83.0025 10.4338 84.1479 10.2162 85.358 10.2162C86.5466 10.2162 87.6487 10.4441 88.6644 10.9C89.7017 11.3351 90.5877 11.936 91.3224 12.7027C92.0788 13.4694 92.6623 14.3914 93.0729 15.4689C93.5051 16.5257 93.7212 17.6757 93.7212 18.9189V20.0378H81.144C81.4466 21.0532 82.0301 21.8716 82.8945 22.4932C83.7589 23.1149 84.7746 23.4257 85.9415 23.4257C86.6763 23.4257 87.3678 23.3117 88.0161 23.0838C88.6644 22.8559 89.2155 22.5347 89.6693 22.1203L92.5866 24.6689ZM85.2608 13.7284C84.2451 13.7284 83.3699 14.0288 82.6352 14.6297C81.9004 15.2099 81.3926 15.9973 81.1116 16.9919H89.3775C89.0966 16.0387 88.5779 15.2617 87.8216 14.6608C87.0868 14.0392 86.2332 13.7284 85.2608 13.7284Z" fill="white"/>
<path d="M92.5502 26.6892L99.0332 18.4527L92.7122 10.4959H97.8663L101.594 15.3135L105.289 10.4959H110.281L104.058 18.3905L110.67 26.6892H105.484L101.497 21.5297L97.5097 26.6892H92.5502Z" fill="white"/>
<path d="M119.412 24.8865C120.277 24.8865 121.109 24.7207 121.908 24.3892C122.708 24.0577 123.453 23.5707 124.145 22.9284L125.636 24.4824C124.772 25.2698 123.799 25.8811 122.719 26.3162C121.638 26.7514 120.514 26.9689 119.347 26.9689C118.202 26.9689 117.122 26.7617 116.106 26.3473C115.09 25.9329 114.215 25.3631 113.48 24.6378C112.746 23.9126 112.162 23.0527 111.73 22.0581C111.298 21.0635 111.082 20.0068 111.082 18.8878C111.082 17.7689 111.298 16.7225 111.73 15.7486C112.162 14.7541 112.746 13.8941 113.48 13.1689C114.215 12.4437 115.09 11.8739 116.106 11.4595C117.122 11.0243 118.202 10.8068 119.347 10.8068C120.514 10.8068 121.649 11.0243 122.751 11.4595C123.875 11.8946 124.858 12.4955 125.701 13.2622L124.177 14.9405C123.529 14.2982 122.783 13.8009 121.941 13.4486C121.098 13.0964 120.244 12.9203 119.38 12.9203C118.559 12.9203 117.781 13.0757 117.046 13.3865C116.311 13.6973 115.674 14.1221 115.133 14.6608C114.615 15.1995 114.204 15.8315 113.902 16.5568C113.599 17.282 113.448 18.059 113.448 18.8878C113.448 19.7374 113.599 20.5351 113.902 21.2811C114.226 22.0063 114.647 22.6383 115.166 23.177C115.706 23.695 116.344 24.1095 117.078 24.4203C117.813 24.7311 118.591 24.8865 119.412 24.8865Z" fill="white"/>
<path d="M132.757 26.9689C130.985 26.9689 129.538 26.5338 128.414 25.6635C127.312 24.7932 126.761 23.664 126.761 22.2757C126.761 20.8252 127.344 19.6752 128.511 18.8257C129.678 17.9554 131.256 17.5203 133.244 17.5203C134.108 17.5203 134.94 17.6135 135.74 17.8C136.561 17.9865 137.317 18.2455 138.009 18.577V16.5257C138.009 15.2824 137.641 14.35 136.907 13.7284C136.172 13.086 135.102 12.7649 133.698 12.7649C132.898 12.7649 132.088 12.8788 131.266 13.1068C130.467 13.314 129.581 13.6559 128.608 14.1324L127.701 12.3608C128.868 11.8221 129.948 11.4284 130.942 11.1797C131.936 10.9311 132.93 10.8068 133.924 10.8068C135.977 10.8068 137.555 11.273 138.657 12.2054C139.781 13.1378 140.343 14.4743 140.343 16.2149V26.6892H138.009V25.1662C137.274 25.7671 136.464 26.223 135.578 26.5338C134.713 26.8239 133.773 26.9689 132.757 26.9689ZM129.062 22.2135C129.062 23.0838 129.44 23.7986 130.197 24.3581C130.975 24.8968 131.969 25.1662 133.179 25.1662C134.151 25.1662 135.037 25.0212 135.837 24.7311C136.637 24.441 137.36 23.9851 138.009 23.3635V20.4419C137.339 20.0068 136.615 19.6959 135.837 19.5095C135.081 19.3023 134.238 19.1986 133.309 19.1986C132.012 19.1986 130.975 19.4784 130.197 20.0378C129.44 20.5766 129.062 21.3018 129.062 22.2135Z" fill="white"/>
<path d="M143.54 26.6892V11.1176H145.938V13.3243C146.414 12.5162 147.04 11.8946 147.818 11.4595C148.596 11.0036 149.482 10.7757 150.476 10.7757C150.779 10.7757 151.049 10.7964 151.287 10.8378C151.525 10.8586 151.762 10.9104 152 10.9932V13.1068C151.719 13.0239 151.438 12.9617 151.157 12.9203C150.876 12.8581 150.595 12.827 150.314 12.827C149.32 12.827 148.445 13.1068 147.689 13.6662C146.932 14.205 146.349 14.9923 145.938 16.0284V26.6892H143.54Z" fill="white"/>
<path fill-rule="evenodd" clip-rule="evenodd" d="M28.5672 0C35.8211 0 41.7015 5.73076 41.7015 12.8V13.44H42.3582C43.2649 13.44 44 14.1563 44 15.04V16.64C44 17.5237 43.2649 18.24 42.3582 18.24H41.7015V20.1147C42.3094 20.6955 42.6866 21.5048 42.6866 22.4V28.8C42.6866 30.5673 41.2165 32 39.403 32H37.7612C35.9477 32 34.4776 30.5673 34.4776 28.8H9.52239C9.52239 30.5673 8.05228 32 6.23881 32H4.59702C2.78354 32 1.31343 30.5673 1.31343 28.8V22.4C1.31343 21.5048 1.6906 20.6955 2.29851 20.1147V18.24H1.64179C0.735055 18.24 0 17.5237 0 16.64V15.04C0 14.1563 0.735055 13.44 1.64179 13.44H2.29851V12.501C2.29851 5.59691 8.0416 0 15.1261 0H28.5672ZM11.5 17.0508C7.87056 17.0508 5.55713 14.9571 5.55713 11.6956C5.55713 8.43402 7.71108 3.1049 13.9725 3.1049H30.0275C36.289 3.1049 38.4429 8.43402 38.4429 11.6956C38.4429 14.9571 36.1294 17.0508 32.5 17.0508L31.6407 20.8L26.4845 17.0508H11.5Z" fill="white"/>
</svg>
