<svg width="18" height="16" viewBox="0 0 18 16" fill="none" xmlns="http://www.w3.org/2000/svg">
<path d="M6.78508 6.93989H1.32508C0.705078 6.93989 0.205078 6.4399 0.205078 5.8199V1.5199C0.205078 0.899897 0.705078 0.399902 1.32508 0.399902H6.78508C7.40508 0.399902 7.90508 0.899897 7.90508 1.5199V5.8199C7.90508 6.4399 7.40508 6.93989 6.78508 6.93989ZM1.80508 5.33989H6.30508V1.9999H1.80508V5.33989ZM16.6851 6.93989H11.2251C10.6051 6.93989 10.1051 6.4399 10.1051 5.8199V1.5199C10.1051 0.899897 10.6051 0.399902 11.2251 0.399902H16.6851C17.3051 0.399902 17.8051 0.899897 17.8051 1.5199V5.8199C17.8051 6.4399 17.3051 6.93989 16.6851 6.93989ZM11.7051 5.33989H16.2051V1.9999H11.7051V5.33989ZM6.78508 15.5999H1.32508C0.705078 15.5999 0.205078 15.0999 0.205078 14.4799V10.1799C0.205078 9.55991 0.705078 9.05991 1.32508 9.05991H6.78508C7.40508 9.05991 7.90508 9.55991 7.90508 10.1799V14.4799C7.90508 15.0999 7.40508 15.5999 6.78508 15.5999ZM1.80508 13.9999H6.30508V10.6599H1.80508V13.9999ZM16.6851 15.5999H11.2251C10.6051 15.5999 10.1051 15.0999 10.1051 14.4799V10.1799C10.1051 9.55991 10.6051 9.05991 11.2251 9.05991H16.6851C17.3051 9.05991 17.8051 9.55991 17.8051 10.1799V14.4799C17.8051 15.0999 17.3051 15.5999 16.6851 15.5999ZM11.7051 13.9999H16.2051V10.6599H11.7051V13.9999Z" fill="#C4C4C4"/></svg>
