<svg width="18" height="16" viewBox="0 0 18 16" fill="none" xmlns="http://www.w3.org/2000/svg">
<path d="M6.78508 6.93998H1.32508C0.705078 6.93998 0.205078 6.43999 0.205078 5.81999V1.51999C0.205078 0.899989 0.705078 0.399994 1.32508 0.399994H6.78508C7.40508 0.399994 7.90508 0.899989 7.90508 1.51999V5.81999C7.90508 6.43999 7.40508 6.93998 6.78508 6.93998ZM1.80508 5.33998H6.30508V1.99999H1.80508V5.33998ZM16.6851 6.93998H11.2251C10.6051 6.93998 10.1051 6.43999 10.1051 5.81999V1.51999C10.1051 0.899989 10.6051 0.399994 11.2251 0.399994H16.6851C17.3051 0.399994 17.8051 0.899989 17.8051 1.51999V5.81999C17.8051 6.43999 17.3051 6.93998 16.6851 6.93998ZM11.7051 5.33998H16.2051V1.99999H11.7051V5.33998ZM6.78508 15.6H1.32508C0.705078 15.6 0.205078 15.1 0.205078 14.48V10.18C0.205078 9.56 0.705078 9.06 1.32508 9.06H6.78508C7.40508 9.06 7.90508 9.56 7.90508 10.18V14.48C7.90508 15.1 7.40508 15.6 6.78508 15.6ZM1.80508 14H6.30508V10.66H1.80508V14ZM16.6851 15.6H11.2251C10.6051 15.6 10.1051 15.1 10.1051 14.48V10.18C10.1051 9.56 10.6051 9.06 11.2251 9.06H16.6851C17.3051 9.06 17.8051 9.56 17.8051 10.18V14.48C17.8051 15.1 17.3051 15.6 16.6851 15.6ZM11.7051 14H16.2051V10.66H11.7051V14Z" fill="#B7B7B7"/>
</svg>
