<svg width="30" height="30" viewBox="0 0 19 19" fill="none" xmlns="http://www.w3.org/2000/svg">
<path d="M15.7 17.5052C15.72 17.4852 15.72 17.4852 15.74 17.4652L17.62 15.3252C17.9 15.0252 18.04 14.6052 18 14.1652C17.96 13.7652 17.8 13.4052 17.52 13.1252C17.5 13.1052 17.48 13.0852 17.46 13.0652L14.8 10.9452C14.2 10.3852 13.28 10.4052 12.7 10.9852C12.66 11.0252 12.62 11.0652 12.6 11.1052L11.88 12.1852C11.5 12.1052 10.42 11.5452 8.43998 9.56521C6.45998 7.58521 5.90001 6.50521 5.82001 6.12521L6.89999 5.40521C6.93999 5.38521 6.98001 5.34521 7.02001 5.30521C7.60001 4.72521 7.6 3.80521 7.06 3.20521L4.93998 0.545217C4.91998 0.525217 4.89997 0.50522 4.87997 0.48522C4.27997 -0.11478 3.27999 -0.15478 2.69999 0.38522L0.559999 2.26521C0.539999 2.28521 0.540009 2.28521 0.520008 2.30521C0.160009 2.66521 0.0200081 3.22522 0.0200081 3.84522C0.0200081 4.94522 0.460009 6.20521 0.720009 6.86521C1.22001 8.14521 2.44001 10.6452 4.92001 13.1252C6.76001 14.9652 8.97997 16.4452 11.18 17.3252C12.18 17.7052 14.66 18.5452 15.7 17.5052ZM6.02001 11.9852C2.32001 8.28522 1.3 4.12521 1.66 3.42521L3.73998 1.60521L5.79999 4.20521L4.73998 4.90521C4.71998 4.92521 4.69997 4.92522 4.67997 4.94522C4.37997 5.18522 4.21999 5.52521 4.19999 5.92521C4.17999 6.30521 4.11999 7.48521 7.29999 10.6652C8.07999 11.4452 10.48 13.8452 12.04 13.7652C12.44 13.7452 12.78 13.5652 13.02 13.2852C13.04 13.2652 13.06 13.2452 13.06 13.2252L13.76 12.1652L16.36 14.2252L14.54 16.3052C13.88 16.7052 9.72001 15.6852 6.02001 11.9852Z" fill="white"/>
</svg>
