<svg width="14" height="20" viewBox="0 0 14 20" fill="none" xmlns="http://www.w3.org/2000/svg">
  
  <path d="M11.505 2.38005C10.3651 1.36005 8.76505 0.800049 7.02504 0.800049C5.28504 0.800049 3.68504 1.36005 2.54504 2.38005C1.16504 3.62005 0.425044 5.48005 0.425044 7.78005C0.425044 12.8001 6.20506 18.7001 6.46506 18.9401C6.62506 19.1001 6.82504 19.1801 7.02504 19.1801C7.22504 19.1801 7.44505 19.1001 7.58505 18.9401C7.82505 18.7001 13.625 12.8001 13.625 7.78005C13.605 5.48005 12.885 3.62005 11.505 2.38005ZM7.00505 17.22C6.46505 16.62 5.60506 15.62 4.76506 14.42C2.96506 11.86 2.00505 9.58005 2.00505 7.80005C2.00505 2.80005 5.82505 2.40005 7.00505 2.40005C11.6451 2.40005 12.005 6.54005 12.005 7.80005C12.005 11.32 8.42505 15.66 7.00505 17.22ZM7.00505 4.26005C5.24505 4.26005 3.82504 5.72005 3.82504 7.50005C3.82504 9.28005 5.24505 10.7401 7.00505 10.7401C8.76505 10.7401 10.1851 9.28005 10.1851 7.50005C10.1851 5.70005 8.76505 4.26005 7.00505 4.26005ZM7.00505 9.32004C6.02505 9.32004 5.22504 8.50005 5.22504 7.48005C5.22504 6.46005 6.02505 5.64005 7.00505 5.64005C7.98505 5.64005 8.78506 6.46005 8.78506 7.48005C8.78506 8.50005 7.98505 9.32004 7.00505 9.32004Z" fill="white"/>

</svg>