<svg width="20" height="12" viewBox="0 0 20 12" fill="none" xmlns="http://www.w3.org/2000/svg">
<path d="M19.1201 1.3601C19.1201 1.3401 19.1201 1.3001 19.1201 1.2801C19.1201 1.2601 19.1201 1.24009 19.1201 1.22009C19.1201 1.20009 19.1 1.18011 19.1 1.14011C19.1 1.12011 19.0801 1.0801 19.0801 1.0601C19.0801 1.0401 19.0601 1.02009 19.0401 1.00009C19.0201 0.980093 19.02 0.940088 19 0.920088V0.900093C18.98 0.880093 18.98 0.880103 18.96 0.860103C18.94 0.840103 18.92 0.820093 18.9 0.800093C18.88 0.780093 18.8601 0.760103 18.8401 0.760103C18.8201 0.740103 18.8001 0.720088 18.7801 0.720088C18.7601 0.700088 18.74 0.700098 18.7201 0.680098C18.7001 0.660098 18.68 0.660107 18.66 0.640107C18.64 0.640107 18.6001 0.620088 18.5801 0.620088C18.5601 0.620088 18.54 0.600093 18.5 0.600093C18.48 0.600093 18.4401 0.600093 18.42 0.600093C18.4 0.600093 18.38 0.600093 18.36 0.600093H1.56004C1.54004 0.600093 1.52005 0.600093 1.50005 0.600093C1.48005 0.600093 1.44005 0.600093 1.42005 0.600093C1.40005 0.600093 1.38004 0.620088 1.34004 0.620088C1.32004 0.620088 1.28004 0.640107 1.26004 0.640107C1.24004 0.640107 1.22005 0.660098 1.20005 0.680098C1.18005 0.700098 1.16004 0.700088 1.14004 0.720088C1.12004 0.740088 1.10006 0.740103 1.08006 0.760103C1.06006 0.780103 1.04005 0.800093 1.02005 0.800093C1.00005 0.820093 0.980039 0.840103 0.960039 0.860103C0.940039 0.880103 0.940049 0.880093 0.920049 0.900093V0.920088C0.900049 0.940088 0.880059 0.980093 0.880059 1.00009C0.860059 1.02009 0.860044 1.0401 0.840044 1.0601C0.820044 1.0801 0.820049 1.10011 0.820049 1.14011C0.820049 1.16011 0.800054 1.18009 0.800054 1.22009C0.800054 1.24009 0.800054 1.2601 0.800054 1.2801C0.800054 1.3001 0.800054 1.3401 0.800054 1.3601V1.3801V10.5801C0.800054 11.0201 1.16005 11.3801 1.60005 11.3801H18.4C18.84 11.3801 19.2 11.0201 19.2 10.5801L19.1201 1.3601C19.1201 1.3801 19.1201 1.3601 19.1201 1.3601ZM15.9 2.1801L9.92005 6.62009L3.94004 2.1801H15.9ZM2.32005 9.7801V2.9801L9.44004 8.2601C9.58004 8.3601 9.74005 8.42009 9.92005 8.42009C10.1 8.42009 10.2601 8.3601 10.4001 8.2601L17.5201 2.9801V9.7801H2.32005Z" fill="black"/>
</svg>
