<svg width="20" height="18" viewBox="0 0 20 18" fill="none" xmlns="http://www.w3.org/2000/svg">
<path d="M10.0052 11.2201C12.9652 11.2201 15.3852 8.80006 15.3852 5.82006C15.3852 2.84006 12.9652 0.420063 10.0052 0.420063C7.04518 0.420063 4.62518 2.84006 4.62518 5.82006C4.62518 8.80006 7.04518 11.2201 10.0052 11.2201ZM10.0052 2.00004C12.0852 2.00004 13.7852 3.70004 13.7852 5.80004C13.7852 7.90004 12.0852 9.60005 10.0052 9.60005C7.92518 9.60005 6.22518 7.90004 6.22518 5.80004C6.22518 3.70004 7.92518 2.00004 10.0052 2.00004ZM12.5052 11.74C12.2452 11.66 11.9452 11.72 11.7452 11.9L10.0052 13.38L8.26517 11.9C8.04517 11.72 7.76518 11.66 7.50518 11.74C6.38518 12.1 0.805176 14.02 0.805176 16.8C0.805176 17.24 1.16518 17.6 1.60518 17.6H18.4052C18.8452 17.6 19.2052 17.24 19.2052 16.8C19.2052 14.02 13.6252 12.1 12.5052 11.74ZM2.82518 16C3.70518 15.06 5.82517 14.0201 7.58517 13.4201L9.48518 15.04C9.78517 15.3 10.2252 15.3 10.5252 15.04L12.4252 13.4201C14.1852 14.0401 16.3052 15.08 17.1852 16H2.82518Z" fill="white"/>
</svg>
