<svg width="40" height="32" viewBox="0 0 40 32" fill="none" xmlns="http://www.w3.org/2000/svg">
<path d="M31.2381 32C27.9365 32 25.4392 30.6455 23.746 27.9365C22.3069 25.6508 21.5873 22.8571 21.5873 19.5556C21.5873 15.3228 22.6455 11.5132 24.7619 8.12699C26.963 4.74075 30.2646 2.03175 34.6667 0L35.8095 2.28572C33.1852 3.38625 30.8995 5.1217 28.9524 7.49206C27.0899 9.86243 26.1587 12.2751 26.1587 14.7302C26.1587 15.746 26.2857 16.6349 26.5397 17.3968C27.8942 16.2963 29.4603 15.746 31.2381 15.746C33.5238 15.746 35.4286 16.5079 36.9524 18.0317C38.5608 19.4709 39.3651 21.418 39.3651 23.873C39.3651 26.1587 38.5608 28.1058 36.9524 29.7143C35.4286 31.2381 33.5238 32 31.2381 32ZM9.6508 32C6.34921 32 3.85185 30.6455 2.15873 27.9365C0.719577 25.6508 0 22.8571 0 19.5556C0 15.3228 1.0582 11.5132 3.1746 8.12699C5.37566 4.74075 8.67725 2.03175 13.0794 0L14.2222 2.28572C11.5979 3.38625 9.31217 5.1217 7.36508 7.49206C5.50265 9.86243 4.57143 12.2751 4.57143 14.7302C4.57143 15.746 4.69841 16.6349 4.95238 17.3968C6.30688 16.2963 7.87302 15.746 9.6508 15.746C11.9365 15.746 13.8413 16.5079 15.3651 18.0317C16.9735 19.4709 17.7778 21.418 17.7778 23.873C17.7778 26.1587 16.9735 28.1058 15.3651 29.7143C13.8413 31.2381 11.9365 32 9.6508 32Z" fill="white"/>
</svg>
