<svg width="20" height="18" viewBox="0 0 20 18" fill="none" xmlns="http://www.w3.org/2000/svg">
<path d="M11.6046 5.44V3.66002C11.6046 3.28002 11.9246 2.96002 12.3046 2.96002C12.6846 2.96002 13.0046 3.28002 13.0046 3.66002V5.44C13.0046 5.82 12.6846 6.14 12.3046 6.14C11.9246 6.14 11.6046 5.82 11.6046 5.44ZM12.2646 8.16002C12.4846 8.16002 12.6846 8.08003 12.8246 7.92003C12.9846 7.76003 13.0646 7.56002 13.0646 7.36002C13.0646 7.14002 12.9846 6.94001 12.8246 6.80001C12.6846 6.64001 12.4646 6.56002 12.2646 6.56002C12.0446 6.56002 11.8446 6.64001 11.7046 6.80001C11.5446 6.94001 11.4646 7.16002 11.4646 7.36002C11.4646 7.56002 11.5446 7.78003 11.7046 7.92003C11.8446 8.08003 12.0646 8.16002 12.2646 8.16002ZM17.5646 7.40001C16.9646 8.02001 16.2245 8.4 15.3445 8.54C14.9045 11.22 13.0246 12.58 10.8246 12.86V15.8H12.5445C12.9845 15.8 13.3445 16.16 13.3445 16.6C13.3445 17.04 12.9845 17.4 12.5445 17.4H7.52455C7.08455 17.4 6.72455 17.04 6.72455 16.6C6.72455 16.16 7.08455 15.8 7.52455 15.8H9.22455V12.86C7.02455 12.58 5.14456 11.22 4.70456 8.54C3.82456 8.42 3.08456 8.04001 2.48456 7.40001C0.844563 5.70001 0.924548 2.79999 0.944548 2.67999C0.964548 2.29999 1.26455 2.00001 1.64455 2.00001H4.64455V1.40001C4.64455 0.960006 4.98455 0.600006 5.42455 0.600006H14.6646C15.1046 0.600006 15.4445 0.960006 15.4445 1.40001V2.00001H18.4445C18.8245 2.00001 19.1245 2.29999 19.1445 2.67999C19.1045 2.79999 19.1846 5.72001 17.5646 7.40001ZM3.46457 6.44C3.78457 6.76 4.20456 7.00001 4.60456 7.10001V3.40001H2.32455C2.40455 4.20001 2.64457 5.58 3.46457 6.44ZM13.8046 2.20001H6.20456V7.37999C6.20456 10.28 8.16456 11.3 10.0046 11.3C11.8446 11.3 13.8046 10.26 13.8046 7.37999V2.20001ZM16.5445 6.44C17.3245 5.64 17.6045 4.40001 17.6845 3.40001H15.4046V7.10001C15.8046 6.98001 16.2245 6.76 16.5445 6.44Z" fill="#B7B7B7"/>
</svg>
