<svg width="20" height="18" viewBox="0 0 20 18" fill="none" xmlns="http://www.w3.org/2000/svg">
<path d="M11.605 5.44009V3.66011C11.605 3.28011 11.925 2.96011 12.305 2.96011C12.685 2.96011 13.005 3.28011 13.005 3.66011V5.44009C13.005 5.82009 12.685 6.14009 12.305 6.14009C11.925 6.14009 11.605 5.82009 11.605 5.44009ZM12.2651 8.16011C12.4851 8.16011 12.6851 8.08012 12.8251 7.92012C12.9851 7.76012 13.0651 7.56011 13.0651 7.36011C13.0651 7.14011 12.9851 6.9401 12.8251 6.8001C12.6851 6.6401 12.4651 6.56011 12.2651 6.56011C12.0451 6.56011 11.845 6.6401 11.705 6.8001C11.545 6.9401 11.4651 7.16011 11.4651 7.36011C11.4651 7.56011 11.545 7.78012 11.705 7.92012C11.845 8.08012 12.0651 8.16011 12.2651 8.16011ZM17.5651 7.4001C16.9651 8.0201 16.225 8.40009 15.345 8.54009C14.905 11.2201 13.0251 12.5801 10.8251 12.8601V15.8001H12.545C12.985 15.8001 13.345 16.1601 13.345 16.6001C13.345 17.0401 12.985 17.4001 12.545 17.4001H7.52504C7.08504 17.4001 6.72504 17.0401 6.72504 16.6001C6.72504 16.1601 7.08504 15.8001 7.52504 15.8001H9.22504V12.8601C7.02504 12.5801 5.14505 11.2201 4.70505 8.54009C3.82505 8.42009 3.08505 8.0401 2.48505 7.4001C0.845051 5.7001 0.925036 2.80008 0.945036 2.68008C0.965036 2.30008 1.26504 2.0001 1.64504 2.0001H4.64504V1.4001C4.64504 0.960098 4.98504 0.600098 5.42504 0.600098H14.6651C15.1051 0.600098 15.445 0.960098 15.445 1.4001V2.0001H18.445C18.825 2.0001 19.125 2.30008 19.145 2.68008C19.105 2.80008 19.1851 5.7201 17.5651 7.4001ZM3.46506 6.44009C3.78506 6.76009 4.20505 7.0001 4.60505 7.1001V3.4001H2.32504C2.40504 4.2001 2.64506 5.58009 3.46506 6.44009ZM13.805 2.2001H6.20505V7.38008C6.20505 10.2801 8.16505 11.3001 10.005 11.3001C11.845 11.3001 13.805 10.2601 13.805 7.38008V2.2001ZM16.545 6.44009C17.325 5.64009 17.605 4.4001 17.685 3.4001H15.405V7.1001C15.805 6.9801 16.225 6.76009 16.545 6.44009Z" fill="#808080"/>
</svg>
