<svg width="30" height="24" viewBox="0 0 30 24" fill="none" xmlns="http://www.w3.org/2000/svg">
<path d="M23.8065 24C21.2903 24 19.3871 22.9841 18.0968 20.9524C17 19.2381 16.4516 17.1429 16.4516 14.6667C16.4516 11.4921 17.2581 8.63492 18.871 6.09524C20.5484 3.55556 23.0645 1.52381 26.4194 0L27.2903 1.71429C25.2903 2.53969 23.5484 3.84127 22.0645 5.61905C20.6452 7.39683 19.9355 9.20635 19.9355 11.0476C19.9355 11.8095 20.0323 12.4762 20.2258 13.0476C21.2581 12.2222 22.4516 11.8095 23.8065 11.8095C25.5484 11.8095 27 12.381 28.1613 13.5238C29.3871 14.6032 30 16.0635 30 17.9048C30 19.6191 29.3871 21.0794 28.1613 22.2857C27 23.4286 25.5484 24 23.8065 24ZM7.35484 24C4.83871 24 2.93548 22.9841 1.64516 20.9524C0.548387 19.2381 0 17.1429 0 14.6667C0 11.4921 0.806451 8.63492 2.41935 6.09524C4.09677 3.55556 6.6129 1.52381 9.96774 0L10.8387 1.71429C8.83871 2.53969 7.09678 3.84127 5.6129 5.61905C4.19355 7.39683 3.48387 9.20635 3.48387 11.0476C3.48387 11.8095 3.58065 12.4762 3.77419 13.0476C4.80645 12.2222 6 11.8095 7.35484 11.8095C9.09678 11.8095 10.5484 12.381 11.7097 13.5238C12.9355 14.6032 13.5484 16.0635 13.5484 17.9048C13.5484 19.6191 12.9355 21.0794 11.7097 22.2857C10.5484 23.4286 9.09678 24 7.35484 24Z" fill="white"/>
</svg>
