<svg width="24" height="24" viewBox="0 0 24 24" fill="none" xmlns="http://www.w3.org/2000/svg">
<path d="M12.4449 15.72C12.3049 15.64 12.1649 15.6 12.0049 15.6C11.8449 15.6 11.7049 15.64 11.5649 15.72L8.4049 17.76L9.3849 14.3C9.4649 14 9.3649 13.68 9.1249 13.48L6.0249 10.86L9.5849 10.6C9.8849 10.58 10.1449 10.4 10.2649 10.14L12.0049 6.31999L13.7449 10.14C13.8849 10.4 14.1249 10.58 14.4249 10.6L17.9849 10.86L14.8849 13.48C14.6449 13.68 14.5449 14 14.6249 14.3L15.6049 17.76L12.4449 15.72Z" fill="#E51A1A"/>
<path d="M16.9449 20.4C16.7849 20.4 16.6449 20.36 16.5049 20.28L12.0049 17.36L7.50494 20.28C7.22494 20.46 6.86494 20.44 6.60494 20.26C6.34494 20.06 6.22494 19.72 6.30494 19.4L7.72494 14.4L3.50494 10.84C3.26493 10.64 3.16493 10.3 3.26493 9.98C3.36493 9.68 3.64493 9.45999 3.96493 9.41999L9.02494 9.06L11.3049 4.08C11.4449 3.8 11.7249 3.61999 12.0249 3.61999C12.3449 3.61999 12.6249 3.8 12.7449 4.08L15.0249 9.06L20.0849 9.41999C20.4049 9.43999 20.6849 9.66 20.7849 9.98C20.8849 10.28 20.7849 10.62 20.5449 10.84L16.3249 14.4L17.7449 19.4C17.8449 19.72 17.7249 20.06 17.4449 20.26C17.2849 20.34 17.1249 20.4 16.9449 20.4ZM12.0049 15.6C12.1649 15.6 12.3049 15.64 12.4449 15.72L15.6049 17.76L14.6249 14.3C14.5449 14 14.6449 13.68 14.8849 13.48L17.9849 10.86L14.4249 10.6C14.1249 10.58 13.8849 10.4 13.7449 10.14L12.0049 6.31999L10.2649 10.14C10.1449 10.4 9.88493 10.58 9.58493 10.6L6.02494 10.86L9.12494 13.48C9.36494 13.68 9.46493 14 9.38493 14.3L8.40494 17.76L11.5649 15.72C11.7049 15.64 11.8449 15.6 12.0049 15.6Z" fill="#262626"/>
</svg>
