<svg width="20" height="16" viewBox="0 0 20 16" fill="none" xmlns="http://www.w3.org/2000/svg">
<path d="M18.4047 0H1.60469C1.16469 0 0.804688 0.36 0.804688 0.8V11.02C0.804688 11.46 1.16469 11.8 1.60469 11.8H11.0047V15.2C11.0047 15.54 11.2647 15.84 11.5647 15.96C11.6647 16 11.7647 16 11.8647 16C12.1047 16 12.3247 15.9 12.4847 15.72L15.8047 11.8H18.4047C18.8447 11.8 19.2047 11.46 19.2047 11.02V0.8C19.2047 0.36 18.8447 0 18.4047 0ZM17.6047 10.2H15.4447C15.2047 10.2 14.9447 10.32 14.7847 10.48L12.6047 13V11C12.6047 10.56 12.3247 10.18 11.8847 10.18H2.40469V1.58H17.6047V10.2ZM4.52468 4.4C4.52468 3.96 4.88468 3.6 5.32468 3.6H11.1247C11.5647 3.6 11.9247 3.96 11.9247 4.4C11.9247 4.84 11.5647 5.2 11.1247 5.2H5.32468C4.88468 5.2 4.52468 4.84 4.52468 4.4ZM13.3047 5.02C13.1647 4.88 13.0647 4.66001 13.0647 4.46001C13.0647 4.24001 13.1447 4.04 13.3047 3.9C13.4647 3.74 13.6647 3.66001 13.8647 3.66001C14.0847 3.66001 14.2847 3.74 14.4247 3.9C14.5647 4.04 14.6647 4.26001 14.6647 4.46001C14.6647 4.68001 14.5847 4.88 14.4247 5.02C14.2647 5.18 14.0647 5.26001 13.8647 5.26001C13.6647 5.24001 13.4647 5.16 13.3047 5.02Z" fill="white"/>
</svg>
