<svg width="16" height="16" viewBox="0 0 16 16" fill="none" xmlns="http://www.w3.org/2000/svg">
<path d="M14.4047 3.5H1.60469C0.884688 3.5 0.304688 2.92 0.304688 2.2C0.304688 1.48 0.884688 0.900002 1.60469 0.900002H14.4047C15.1247 0.900002 15.7047 1.48 15.7047 2.2C15.7047 2.92 15.1247 3.5 14.4047 3.5ZM15.7047 8C15.7047 7.28 15.1247 6.7 14.4047 6.7H1.60469C0.884688 6.7 0.304688 7.28 0.304688 8C0.304688 8.72 0.884688 9.3 1.60469 9.3H14.4047C15.1247 9.3 15.7047 8.72 15.7047 8ZM15.7047 13.8C15.7047 13.08 15.1247 12.5 14.4047 12.5H1.60469C0.884688 12.5 0.304688 13.08 0.304688 13.8C0.304688 14.52 0.884688 15.1 1.60469 15.1H14.4047C15.1247 15.1 15.7047 14.52 15.7047 13.8Z" fill="white"/>
</svg>
