<svg width="20" height="16" viewBox="0 0 20 16" fill="none" xmlns="http://www.w3.org/2000/svg">
<path d="M19.1652 4.06002L17.0252 10.82C16.8652 11.3 16.4452 11.62 15.9452 11.62H7.68517C7.20517 11.62 6.74517 11.32 6.58517 10.88L3.44518 2.42003H1.60518C1.16518 2.42003 0.805176 2.06003 0.805176 1.62003C0.805176 1.18003 1.16518 0.820027 1.60518 0.820027H3.98517C4.32517 0.820027 4.62518 1.04002 4.74518 1.36002L8.00518 10H15.6052L17.3052 4.60001H7.88517C7.44517 4.60001 7.08517 4.24001 7.08517 3.80001C7.08517 3.36001 7.44517 3.00001 7.88517 3.00001H18.4052C18.6652 3.00001 18.9052 3.14 19.0452 3.34C19.2052 3.54 19.2452 3.82002 19.1652 4.06002ZM8.08517 12.66C7.74517 12.66 7.40517 12.8 7.16517 13.04C6.92517 13.28 6.78517 13.62 6.78517 13.96C6.78517 14.3 6.92517 14.64 7.16517 14.88C7.40517 15.12 7.74517 15.26 8.08517 15.26C8.42517 15.26 8.76518 15.12 9.00518 14.88C9.24518 14.64 9.38517 14.3 9.38517 13.96C9.38517 13.62 9.24518 13.28 9.00518 13.04C8.76518 12.8 8.42517 12.66 8.08517 12.66ZM15.2652 12.66C14.9252 12.66 14.5852 12.8 14.3452 13.04C14.1052 13.28 13.9652 13.62 13.9652 13.96C13.9652 14.3 14.1052 14.64 14.3452 14.88C14.5852 15.12 14.9252 15.26 15.2652 15.26C15.6052 15.26 15.9452 15.12 16.1852 14.88C16.4252 14.64 16.5652 14.3 16.5652 13.96C16.5652 13.62 16.4252 13.28 16.1852 13.04C15.9452 12.8 15.6052 12.66 15.2652 12.66Z" fill="white"/>
</svg>
