<svg width="18" height="18" viewBox="0 0 18 18" fill="none" xmlns="http://www.w3.org/2000/svg">
<path d="M17.6043 11.56V17C17.6043 17.56 17.1643 18 16.6043 18H1.4043C0.844297 18 0.404297 17.56 0.404297 17V11.56C0.404297 11 0.844297 10.56 1.4043 10.56C1.9643 10.56 2.4043 11 2.4043 11.56V16H15.6043V11.56C15.6043 11 16.0443 10.56 16.6043 10.56C17.1643 10.56 17.6043 11 17.6043 11.56ZM5.72429 5.77998L8.0043 3.46001V12.12C8.0043 12.68 8.4443 13.12 9.0043 13.12C9.5643 13.12 10.0043 12.68 10.0043 12.12V3.46001L12.2843 5.77998C12.4843 5.97998 12.7443 6.07998 13.0043 6.07998C13.2643 6.07998 13.5043 5.98 13.7043 5.8C14.1043 5.42 14.1043 4.77998 13.7243 4.37998L9.74429 0.3C9.56429 0.1 9.30429 0 9.02429 0C8.76429 0 8.5043 0.1 8.3043 0.3L4.32429 4.37998C3.94429 4.77998 3.94429 5.4 4.34429 5.8C4.70429 6.18 5.34429 6.15998 5.72429 5.77998Z" fill="black"/>
</svg>
