<svg width="20" height="18" viewBox="0 0 20 18" fill="none" xmlns="http://www.w3.org/2000/svg">
<path d="M10.0047 11.22C12.9647 11.22 15.3847 8.80003 15.3847 5.82003C15.3847 2.84003 12.9647 0.420033 10.0047 0.420033C7.04469 0.420033 4.62469 2.84003 4.62469 5.82003C4.62469 8.80003 7.04469 11.22 10.0047 11.22ZM10.0047 2.00001C12.0847 2.00001 13.7847 3.70001 13.7847 5.80001C13.7847 7.90001 12.0847 9.60001 10.0047 9.60001C7.92469 9.60001 6.22469 7.90001 6.22469 5.80001C6.22469 3.70001 7.92469 2.00001 10.0047 2.00001ZM12.5047 11.74C12.2447 11.66 11.9447 11.72 11.7447 11.9L10.0047 13.38L8.26469 11.9C8.04469 11.72 7.76469 11.66 7.50469 11.74C6.38469 12.1 0.804688 14.02 0.804688 16.8C0.804688 17.24 1.16469 17.6 1.60469 17.6H18.4047C18.8447 17.6 19.2047 17.24 19.2047 16.8C19.2047 14.02 13.6247 12.1 12.5047 11.74ZM2.82469 16C3.70469 15.06 5.82469 14.02 7.58469 13.42L9.48469 15.04C9.78469 15.3 10.2247 15.3 10.5247 15.04L12.4247 13.42C14.1847 14.04 16.3047 15.08 17.1847 16H2.82469Z" fill="#C4C4C4"/>
</svg>
