<svg width="24" height="24" viewBox="0 0 24 24" fill="none" xmlns="http://www.w3.org/2000/svg">
<path d="M12.0047 14.22C14.9647 14.22 17.3847 11.8 17.3847 8.82004C17.3847 5.84004 14.9647 3.42004 12.0047 3.42004C9.04469 3.42004 6.62469 5.84004 6.62469 8.82004C6.62469 11.8 9.04469 14.22 12.0047 14.22ZM12.0047 5.00002C14.0847 5.00002 15.7847 6.70002 15.7847 8.80002C15.7847 10.9 14.0847 12.6 12.0047 12.6C9.92469 12.6 8.22469 10.9 8.22469 8.80002C8.22469 6.70002 9.92469 5.00002 12.0047 5.00002ZM14.5047 14.74C14.2447 14.66 13.9447 14.72 13.7447 14.9L12.0047 16.38L10.2647 14.9C10.0447 14.72 9.76469 14.66 9.50469 14.74C8.38469 15.1 2.80469 17.02 2.80469 19.8C2.80469 20.24 3.16469 20.6 3.60469 20.6H20.4047C20.8447 20.6 21.2047 20.24 21.2047 19.8C21.2047 17.02 15.6247 15.1 14.5047 14.74ZM4.82469 19C5.70469 18.06 7.82469 17.02 9.58469 16.42L11.4847 18.04C11.7847 18.3 12.2247 18.3 12.5247 18.04L14.4247 16.42C16.1847 17.04 18.3047 18.08 19.1847 19H4.82469Z" fill="white"/>
</svg>
