<svg width="20" height="20" viewBox="0 0 20 20" fill="none" xmlns="http://www.w3.org/2000/svg">
<path d="M6.24515 9.23999L10.7652 13.76C10.9452 13.94 11.1852 14.04 11.4252 14.04C11.6652 14.04 11.9052 13.94 12.0852 13.76L13.7652 12.08C13.9452 11.9 14.0451 11.68 14.0451 11.42C14.0451 11.18 13.9452 10.94 13.7652 10.76L9.24515 6.23999C9.06515 6.05999 8.84516 5.96001 8.58516 5.96001C8.34516 5.96001 8.10515 6.05999 7.92515 6.23999L6.24515 7.92002C5.88515 8.28002 5.88515 8.87999 6.24515 9.23999ZM8.58516 7.27998L12.7252 11.42L11.4252 12.72L7.28516 8.57998L8.58516 7.27998ZM18.9652 11.9L8.10516 1.03999C7.78516 0.719993 7.28517 0.719993 6.96517 1.03999L5.44515 2.56001C5.22515 2.78001 5.14517 3.12002 5.26517 3.42002C5.48517 3.96002 5.34515 4.56001 4.94515 4.96001C4.54515 5.36001 3.94516 5.47998 3.40516 5.27998C3.10516 5.15998 2.76515 5.24001 2.54515 5.46001L1.02515 6.97998C0.865151 7.13998 0.785161 7.33999 0.785161 7.53999C0.785161 7.73999 0.865151 7.96 1.02515 8.1L11.8852 18.96C12.0452 19.12 12.2451 19.2 12.4451 19.2C12.6451 19.2 12.8652 19.12 13.0052 18.96L14.5252 17.44C14.7452 17.22 14.8252 16.88 14.7052 16.58C14.4852 16.04 14.6252 15.44 15.0252 15.04C15.4252 14.64 16.0252 14.52 16.5652 14.72C16.8652 14.84 17.2052 14.76 17.4252 14.54L18.9451 13.02C19.2851 12.7 19.2852 12.2 18.9652 11.9ZM16.6451 13.08C15.6651 12.88 14.6252 13.18 13.9052 13.92C13.1852 14.64 12.8852 15.68 13.0652 16.66L12.4451 17.28L2.72515 7.56001L3.34515 6.93999C4.32515 7.13999 5.36516 6.84 6.08516 6.1C6.80516 5.38 7.10515 4.34001 6.92515 3.36001L7.54515 2.73999L17.2652 12.46L16.6451 13.08Z" fill="#B7B7B7"/>
</svg>
