<svg width="20" height="20" viewBox="0 0 20 20" fill="none" xmlns="http://www.w3.org/2000/svg">
<path d="M6.24502 9.2398L10.765 13.7598C10.945 13.9398 11.185 14.0398 11.425 14.0398C11.665 14.0398 11.905 13.9398 12.085 13.7598L13.765 12.0798C13.945 11.8998 14.045 11.6798 14.045 11.4198C14.045 11.1798 13.945 10.9398 13.765 10.7598L9.24502 6.2398C9.06502 6.0598 8.84504 5.95982 8.58504 5.95982C8.34504 5.95982 8.10503 6.0598 7.92503 6.2398L6.24502 7.91983C5.88502 8.27982 5.88502 8.8798 6.24502 9.2398ZM8.58504 7.27979L12.725 11.4198L11.425 12.7198L7.28504 8.57979L8.58504 7.27979ZM18.965 11.8998L8.10503 1.03979C7.78503 0.719795 7.28504 0.719795 6.96504 1.03979L5.44502 2.55981C5.22502 2.77981 5.14504 3.11982 5.26504 3.41982C5.48504 3.95982 5.34502 4.55981 4.94502 4.95982C4.54502 5.35981 3.94503 5.47979 3.40503 5.27979C3.10503 5.15979 2.76502 5.23981 2.54502 5.45982L1.02503 6.97979C0.865029 7.13979 0.785039 7.3398 0.785039 7.5398C0.785039 7.7398 0.865029 7.95981 1.02503 8.09981L11.885 18.9598C12.045 19.1198 12.245 19.1998 12.445 19.1998C12.645 19.1998 12.865 19.1198 13.005 18.9598L14.525 17.4398C14.745 17.2198 14.825 16.8798 14.705 16.5798C14.485 16.0398 14.625 15.4398 15.025 15.0398C15.425 14.6398 16.025 14.5198 16.565 14.7198C16.865 14.8398 17.205 14.7598 17.425 14.5398L18.945 13.0198C19.285 12.6998 19.285 12.1998 18.965 11.8998ZM16.645 13.0798C15.665 12.8798 14.625 13.1798 13.905 13.9198C13.185 14.6398 12.885 15.6798 13.065 16.6598L12.445 17.2798L2.72503 7.55981L3.34502 6.9398C4.32502 7.1398 5.36504 6.83981 6.08504 6.09981C6.80504 5.37981 7.10503 4.33981 6.92503 3.35981L7.54502 2.7398L17.265 12.4598L16.645 13.0798Z" fill="#808080"/>
</svg>
