<svg width="19" height="16" viewBox="0 0 19 16" fill="none" xmlns="http://www.w3.org/2000/svg">
<path d="M14.2651 8.66001C14.5251 8.92001 14.6651 9.28001 14.6651 9.66001C14.6651 10.02 14.5251 10.38 14.2651 10.64C14.0051 10.9 13.6451 11.06 13.2651 11.06C12.9051 11.06 12.5451 10.9 12.2651 10.64C12.0051 10.38 11.8651 10.02 11.8651 9.66001C11.8651 9.28001 12.0251 8.94001 12.2651 8.66001C12.5251 8.40001 12.8851 8.26001 13.2651 8.26001C13.6451 8.26001 14.0051 8.40001 14.2651 8.66001ZM18.0051 5.53999V14.38C18.0051 15.28 17.2851 16 16.3851 16H1.90513C0.845127 16 0.00512695 15.14 0.00512695 14.1V6.9V5.22002V2.4C0.00512695 1.08 1.08513 0 2.40513 0H13.4651C14.5651 0 15.4051 0.9 15.4051 2V3.2H15.7651C17.0051 3.2 18.0051 4.29999 18.0051 5.53999ZM1.48513 2.4C1.48513 2.84 1.84513 3.2 2.28513 3.2H13.8051V1.96001C13.8051 1.76001 13.6451 1.6 13.4451 1.6H2.28513C1.84513 1.6 1.48513 1.96 1.48513 2.4ZM16.4051 5.53999C16.4051 5.19999 16.1251 4.8 15.7651 4.8H1.92512C1.74512 4.8 1.60513 5.04002 1.60513 5.22002V6.9V14.1C1.60513 14.26 1.74513 14.4 1.90513 14.4H16.3851C16.4051 14.4 16.4051 14.38 16.4051 14.38V5.53999Z" fill="#808080"/>
</svg>
